<svg width="19" height="18" viewBox="0 0 19 18" fill="none" xmlns="http://www.w3.org/2000/svg">
<path d="M10.5137 0.80666C11.5868 -0.268043 13.3275 -0.269078 14.4014 0.804707L16.8936 3.29689C17.958 4.36158 17.9686 6.08481 16.918 7.16311L7.68463 16.6367C6.97917 17.3605 6.01134 17.7686 5.00104 17.7686H2.24908C0.970104 17.7684 -0.0515485 16.7027 0.00201401 15.4238L0.120178 12.6143C0.159791 11.6754 0.550232 10.7849 1.21393 10.1201L10.5137 0.80666ZM17.5147 16.1953C17.9287 16.1953 18.2646 16.531 18.2647 16.9453C18.2647 17.3597 17.9288 17.6953 17.5147 17.6953H11.3936C10.9796 17.6953 10.6436 17.3597 10.6436 16.9453C10.6437 16.531 10.9796 16.1953 11.3936 16.1953H17.5147ZM2.27447 11.1817C1.87633 11.5805 1.64192 12.1145 1.61822 12.6778L1.50006 15.4863C1.48214 15.9126 1.82287 16.2683 2.24908 16.2686H5.00201C5.60797 16.2684 6.18824 16.023 6.61139 15.5889L13.1436 8.88576L8.85065 4.59377L2.27447 11.1817ZM13.3419 1.86623C12.8537 1.37807 12.0621 1.37868 11.5743 1.86721L9.91022 3.53225L14.1905 7.81154L15.8438 6.11623C16.3214 5.62618 16.3177 4.84244 15.834 4.35842L13.3419 1.86623Z" fill="#636363"/>
</svg>
