<svg width="20" height="21" viewBox="0 0 20 21" fill="none" xmlns="http://www.w3.org/2000/svg">
<path d="M8.75 0C13.5825 0 17.5 3.91751 17.5 8.75C17.5 11.0129 16.6402 13.0746 15.2305 14.6279L19.7803 19.1777C20.0731 19.4706 20.0732 19.9454 19.7803 20.2383C19.4874 20.5311 19.0126 20.5311 18.7197 20.2383L14.1289 15.6475C12.6447 16.8065 10.7791 17.5 8.75 17.5C3.91753 17.5 3.29867e-05 13.5825 0 8.75C0 3.91751 3.91751 0 8.75 0ZM8.75 1.5C4.74594 1.5 1.5 4.74594 1.5 8.75C1.50003 12.754 4.74596 16 8.75 16C12.754 16 16 12.754 16 8.75C16 4.74594 12.7541 1.5 8.75 1.5Z" fill="#636363"/>
</svg>
