<?xml version="1.0" encoding="UTF-8"?>
<svg version="1.1" xmlns="http://www.w3.org/2000/svg" width="512" height="512">
<path d="M0 0 C10.53489754 7.06062282 16.09362672 22.72850805 20.4375 34.125 C20.70280518 34.7967627 20.96811035 35.46852539 21.24145508 36.16064453 C28.00231176 54.75671282 28.14026294 73.50811687 27.875 93.0625 C27.85488313 95.66925695 27.83664164 98.27602907 27.8203125 100.8828125 C27.7767781 107.19304625 27.71028587 113.50269942 27.625 119.8125 C28.88731949 119.80361755 30.14963898 119.79473511 31.45021057 119.7855835 C43.35334131 119.70445454 55.25641586 119.6445137 67.15976048 119.60525131 C73.27923174 119.58438744 79.39847958 119.55609108 85.51782227 119.51074219 C91.42466868 119.46724259 97.33130035 119.44335386 103.2382946 119.43299103 C105.49053261 119.42560713 107.74275902 119.41118809 109.99490547 119.38957977 C113.15254123 119.36049189 116.30929257 119.35654636 119.46704102 119.35839844 C120.39564941 119.34401733 121.32425781 119.32963623 122.28100586 119.31481934 C128.99379065 119.35735043 133.35020364 120.74329623 138.3671875 125.4453125 C143.41329396 132.09225273 143.42995277 137.53166405 142.625 145.8125 C141.49678767 148.84298962 140.13786828 150.7911598 137.625 152.8125 C135.86395683 153.61274345 135.86395683 153.61274345 134.06733704 154.42915344 C132.16211617 155.44253917 132.16211617 155.44253917 130.625 156.8125 C129.89546676 159.69227572 129.69330525 161.49282697 129.77026367 164.37573242 C129.75891891 165.51072174 129.75891891 165.51072174 129.74734497 166.66864014 C129.73014053 169.1694883 129.76177819 171.66729584 129.79296875 174.16796875 C129.78865965 175.91190201 129.78098517 177.65582991 129.77009583 179.3997345 C129.7491548 183.99485695 129.76823652 188.58891447 129.79736328 193.18395996 C129.8367954 200.51992378 129.8137213 207.85598313 129.79436684 215.19198036 C129.79299451 217.74504624 129.80732854 220.29763112 129.82450867 222.85063171 C129.90029789 243.5609993 129.90029789 243.5609993 122.55078125 251.21484375 C117.93156076 255.04701653 112.39996437 255.32812182 106.625 254.8125 C100.44313713 252.78740699 96.88336707 249.80627013 93.00566101 244.66584778 C91.19954129 240.9332243 91.22743021 237.58942236 91.28442383 233.53393555 C91.28376671 232.30389046 91.28376671 232.30389046 91.28309631 231.04899597 C91.28517997 228.34882482 91.30849084 225.64928093 91.33203125 222.94921875 C91.33762871 221.07306762 91.3418981 219.19691209 91.34489441 217.320755 C91.35633134 212.39036892 91.38578867 207.4602493 91.41900635 202.52996826 C91.45513718 196.61035417 91.46887386 190.69065082 91.48636627 184.77095795 C91.51542665 175.78462016 91.57292189 166.79886666 91.625 157.8125 C70.505 157.8125 49.385 157.8125 27.625 157.8125 C27.67140625 163.79503906 27.7178125 169.77757812 27.765625 175.94140625 C27.78606976 179.73764762 27.80532597 183.53382086 27.8203125 187.33007812 C27.84419864 193.35211329 27.87241762 199.37390455 27.92675781 205.39575195 C27.97030618 210.25221869 27.99415624 215.10842376 28.00450897 219.96507072 C28.0118842 221.81539973 28.0262864 223.66571485 28.04792023 225.51593208 C28.07707403 228.11322801 28.08095105 230.70945082 28.07910156 233.30688477 C28.09348267 234.06717987 28.10786377 234.82747498 28.12268066 235.61080933 C28.07543118 241.76687197 26.216043 245.87202881 22.08984375 250.5546875 C15.92747903 255.12523934 9.29873255 255.24110213 1.875 254.375 C-2.68335169 252.18348477 -5.69497492 249.0906403 -8.375 244.8125 C-10.01645327 239.94048259 -10.62516173 235.71561566 -10.6265564 230.58656311 C-10.62952654 229.89358374 -10.63249667 229.20060436 -10.63555682 228.48662561 C-10.64314783 226.1824853 -10.63672291 223.87860362 -10.63037109 221.57446289 C-10.63312348 219.91468128 -10.63680488 218.25490098 -10.64134216 216.59512329 C-10.64943738 213.02770774 -10.65162674 209.46035481 -10.64939499 205.89293098 C-10.64655197 200.23809359 -10.66095305 194.58338015 -10.67837524 188.92857361 C-10.72530063 172.85043207 -10.7493207 156.7722988 -10.75585938 140.6940918 C-10.75962536 131.80861401 -10.77778021 122.92327656 -10.81095374 114.0378589 C-10.8310344 108.43152679 -10.83360339 102.82555995 -10.82267356 97.21920693 C-10.82004223 93.70898963 -10.83418798 90.19897918 -10.85275459 86.68881607 C-10.85801899 85.07814354 -10.8566802 83.46743149 -10.84771919 81.85677528 C-10.74477277 61.70462132 -16.88659731 45.13411146 -26.17578125 27.3359375 C-28.86565177 21.67581907 -28.80285572 16.47471334 -27.8125 10.3125 C-25.60607472 4.94033411 -21.96705378 1.42377667 -17.0625 -1.625 C-10.95356784 -2.90361371 -5.51034517 -3.27530797 0 0 Z " fill="#573E09" transform="translate(43.375,219.1875)"/>
<path d="M0 0 C4.78655163 2.28213297 8.02483313 5.66375972 11 10 C14.28746065 21.05782217 9.39479361 30.54226731 4.5625 40.25 C-1.07253041 51.85066443 -5.10408413 63.06149545 -5.14476013 76.12155151 C-5.1500504 77.1620804 -5.1500504 77.1620804 -5.15544754 78.22363007 C-5.16607647 80.53564962 -5.16980533 82.84762787 -5.17358398 85.15966797 C-5.17989373 86.82243013 -5.18666 88.48519062 -5.19384766 90.14794922 C-5.20848804 93.72301762 -5.22022469 97.29807962 -5.22979546 100.87316513 C-5.24528136 106.52990504 -5.26923021 112.18658958 -5.29469299 117.84329224 C-5.36580772 133.9269053 -5.42566789 150.01054969 -5.47680664 166.09423828 C-5.50513853 174.981434 -5.54053276 183.86857421 -5.58346039 192.75571167 C-5.61017943 198.37502872 -5.62811717 203.99428305 -5.63949764 209.61365104 C-5.64864595 213.1146921 -5.666018 216.6156571 -5.68567657 220.11665344 C-5.69312757 221.73551864 -5.69723165 223.35440339 -5.69767189 224.97328568 C-5.70786036 245.70786036 -5.70786036 245.70786036 -13 253 C-17.40598072 256.65066974 -22.43193595 257.11068017 -28 257 C-34.32749991 256.03613353 -37.70018637 252.6742595 -41.65234375 247.83984375 C-44.46510985 243.99980655 -44.13450438 240.56611251 -44.11352539 235.97021484 C-44.11367142 235.14086929 -44.11381744 234.31152374 -44.1139679 233.45704651 C-44.11326971 230.70831715 -44.10548171 227.95965506 -44.09765625 225.2109375 C-44.09579174 223.30807533 -44.09436799 221.40521268 -44.09336853 219.50234985 C-44.08954599 214.48818644 -44.07971793 209.47405189 -44.06866455 204.4598999 C-44.05664871 198.44686479 -44.05204694 192.43382004 -44.04621124 186.42077637 C-44.03650605 177.28049749 -44.01734765 168.14028197 -44 159 C-65.12 159 -86.24 159 -108 159 C-107.95359375 165.06632813 -107.9071875 171.13265625 -107.859375 177.3828125 C-107.83893343 181.22918381 -107.81967745 185.07548802 -107.8046875 188.921875 C-107.78078908 195.02520684 -107.75253695 201.12829832 -107.69824219 207.23144531 C-107.65473604 212.15274563 -107.63085263 217.07378815 -107.62049103 221.99526596 C-107.61310824 223.87154066 -107.59869127 225.74780146 -107.57707977 227.62396622 C-107.54798223 230.25499049 -107.54404662 232.88495363 -107.54589844 235.51611328 C-107.53151733 236.2893544 -107.51713623 237.06259552 -107.50231934 237.85926819 C-107.54198415 243.0779158 -108.72189374 245.97474742 -112 250 C-116.43033827 254.23771487 -120.10461748 256.89017993 -126.35546875 257.06640625 C-132.48256347 256.76051499 -136.61159591 255.33004766 -141 251 C-146.28230311 244.60563308 -146.15325133 237.84915591 -146.11352539 229.86157227 C-146.11367142 229.08026443 -146.11381744 228.2989566 -146.1139679 227.49397278 C-146.11327627 224.9347548 -146.10551927 222.37561138 -146.09765625 219.81640625 C-146.0957894 218.03279154 -146.09436676 216.24917632 -146.09336853 214.46556091 C-146.08956435 209.78848842 -146.07975213 205.11144735 -146.06866455 200.43438721 C-146.05840516 195.65483017 -146.05386123 190.87526802 -146.04882812 186.09570312 C-146.03812786 176.730455 -146.02107682 167.36523012 -146 158 C-146.78407227 157.87165771 -147.56814453 157.74331543 -148.37597656 157.61108398 C-151.66601733 156.84489753 -152.63656492 155.64818496 -154.75 153.0625 C-155.63945312 151.99708984 -155.63945312 151.99708984 -156.546875 150.91015625 C-160.31114704 145.96195993 -159.51663274 139.96674433 -159 134 C-156.7144807 129.07734305 -153.28305294 126.18950751 -149 123 C-146.23482879 122.07827626 -144.61556129 121.87624162 -141.766922 121.87974548 C-140.90455429 121.87837082 -140.04218658 121.87699615 -139.15368652 121.87557983 C-138.21069702 121.87917511 -137.26770752 121.88277039 -136.29614258 121.88647461 C-135.3008403 121.88632858 -134.30553802 121.88618256 -133.28007507 121.8860321 C-129.98487175 121.88672968 -126.68972471 121.89451489 -123.39453125 121.90234375 C-121.11195405 121.90420848 -118.82937645 121.90563212 -116.54679871 121.90663147 C-110.53474831 121.91045233 -104.52272202 121.92027896 -98.51068115 121.93133545 C-92.37756679 121.94155882 -86.24444855 121.94613108 -80.11132812 121.95117188 C-68.07420815 121.96190159 -56.03710608 121.97897286 -44 122 C-44.00999275 121.0042672 -44.00999275 121.0042672 -44.02018738 119.98841858 C-44.0872533 112.99501456 -44.13209191 106.00170383 -44.16479492 99.00805664 C-44.17975671 96.40808391 -44.20013343 93.80813587 -44.22631836 91.20825195 C-44.3996443 73.53920151 -44.5417743 56.41830566 -37.9375 39.75 C-37.64294922 38.98333008 -37.34839844 38.21666016 -37.04492188 37.42675781 C-34.56118879 31.11584092 -31.83338462 24.91089507 -29 18.75 C-28.6093335 17.88084961 -28.21866699 17.01169922 -27.81616211 16.11621094 C-21.87360858 3.60993104 -14.07207551 -1.94792453 0 0 Z " fill="#573E09" transform="translate(485,216)"/>
<path d="M0 0 C1.18078125 0.4125 2.3615625 0.825 3.578125 1.25 C23.90993733 9.13193606 40.68876181 25.05532955 49.85546875 44.83984375 C55.42063316 57.70825188 57 68.78143058 57 83 C-0.75 83 -58.5 83 -118 83 C-118 58.2783841 -110.10014583 38.90123374 -93 21 C-92.45988281 20.38511719 -91.91976562 19.77023438 -91.36328125 19.13671875 C-69.55506496 -4.75893386 -29.51494961 -10.68414466 0 0 Z M-81 25 C-86.3857842 29.27655321 -91.27829229 33.54385614 -94 40 C-94.58661468 43.75393319 -94.58661468 43.75393319 -94 47 C-93.34 47.66 -92.68 48.32 -92 49 C-89.26142659 48.78934051 -87.55321125 48.45606694 -85.41503906 46.69335938 C-83.82988139 44.79642121 -83.35583253 43.48668021 -82.796875 41.09375 C-82.6215625 40.34996094 -82.44625 39.60617188 -82.265625 38.83984375 C-82.09546875 38.06769531 -81.9253125 37.29554688 -81.75 36.5 C-81.564375 35.72785156 -81.37875 34.95570313 -81.1875 34.16015625 C-80.11218833 29.56313019 -80.11218833 29.56313019 -81 25 Z " fill="#573E09" transform="translate(287,148)"/>
<path d="M0 0 C1.66871073 -0.00935994 1.66871073 -0.00935994 3.37113279 -0.01890898 C7.09451624 -0.03484894 10.81724598 -0.0222301 14.54063416 -0.00964355 C17.21171984 -0.01506419 19.88276067 -0.02204189 22.55383301 -0.03088379 C29.05275098 -0.04865339 35.55148398 -0.04483623 42.05040915 -0.03323323 C47.33243375 -0.02419378 52.61440657 -0.0229771 57.89643669 -0.02732849 C59.02476293 -0.02824789 59.02476293 -0.02824789 60.17588363 -0.02918586 C61.70406252 -0.03046478 63.2322414 -0.03176163 64.76042026 -0.03307623 C79.08367723 -0.04447725 93.40683173 -0.03137544 107.73007189 -0.00987476 C120.01788873 0.00799946 132.30555442 0.00488857 144.59336853 -0.0135498 C158.86747727 -0.0349587 173.14149628 -0.04338249 187.41561884 -0.03110075 C188.93781975 -0.02982657 190.46002067 -0.02856908 191.9822216 -0.02732849 C193.10561481 -0.02640284 193.10561481 -0.02640284 194.25170283 -0.02545848 C199.52739273 -0.02200591 204.80302567 -0.02783185 210.07870674 -0.0372467 C216.50793992 -0.04846814 222.93697777 -0.04542361 229.36618859 -0.02412373 C232.64601528 -0.01361555 235.92544928 -0.01164254 239.20528412 -0.02272034 C242.7611246 -0.03362446 246.3160446 -0.0199727 249.87182617 0 C250.90791222 -0.00892289 251.94399827 -0.01784577 253.01148087 -0.02703905 C258.97197046 0.03805671 262.29072159 0.61420447 266.87242126 4.50793457 C267.48730408 5.01453613 268.10218689 5.5211377 268.73570251 6.04309082 C272.76149354 10.28590562 273.83322754 13.97597787 274.03257751 19.79699707 C273.73492627 24.83528895 272.69407861 28.5811007 269.18101501 32.29699707 C265.24451764 35.76505947 262.68626635 37.63066346 257.36392593 37.64215565 C255.9318275 37.64884241 255.9318275 37.64884241 254.47079778 37.65566427 C253.41459635 37.6554799 252.35839491 37.65529554 251.27018738 37.65510559 C250.15381858 37.65878228 249.03744977 37.66245897 247.88725162 37.66624707 C244.12091038 37.67732025 240.35459669 37.68113389 236.58824158 37.68493652 C233.89820693 37.69119839 231.20817527 37.69783182 228.5181427 37.70484924 C220.42692772 37.72462469 212.33571146 37.73468137 204.24447834 37.74357703 C200.43579408 37.74795829 196.6271112 37.75332553 192.81842804 37.7585659 C180.16013503 37.7755795 167.50184289 37.79007407 154.84354019 37.79731464 C151.55759429 37.79922459 148.27164839 37.80114492 144.98570251 37.80310059 C144.16897893 37.80358433 143.35225535 37.80406807 142.51078257 37.80456647 C129.27794018 37.81286823 116.04518815 37.83820699 102.81238523 37.87068126 C89.23180208 37.90373774 75.65126488 37.92176214 62.07064128 37.92495888 C54.44348853 37.92712533 46.81646753 37.93589348 39.18935394 37.96142006 C32.6941522 37.98310786 26.19911419 37.99118703 19.70388034 37.98145328 C16.38964014 37.97690284 13.07580911 37.9810113 9.76160049 37.99821472 C6.16830937 38.01582582 2.57588043 38.00887967 -1.01741028 37.99568176 C-2.06468882 38.00665101 -3.11196737 38.01762025 -4.19098163 38.0289219 C-10.17362058 37.97573258 -13.55672809 37.4653755 -18.12757874 33.50793457 C-22.03574948 29.38264323 -24.04123509 25.67866528 -24.19789124 19.92590332 C-23.94400033 14.46724886 -23.14260549 10.45578099 -19.86976624 6.04309082 C-13.50368309 0.43351532 -8.21828293 -0.07092947 0 0 Z " fill="#573E09" transform="translate(131.12757873535156,241.4920654296875)"/>
<path d="M0 0 C1.30582031 -0.00563965 2.61164063 -0.0112793 3.95703125 -0.01708984 C4.65594482 -0.02187347 5.3548584 -0.0266571 6.07495117 -0.03158569 C7.55096694 -0.03498447 9.02705799 -0.02578296 10.50292969 -0.00488281 C12.76277425 0.0218926 15.0176537 -0.00462113 17.27734375 -0.03662109 C18.71225055 -0.03331698 20.14715426 -0.02691069 21.58203125 -0.01708984 C22.88785156 -0.0114502 24.19367188 -0.00581055 25.5390625 0 C28.76953125 0.64697266 28.76953125 0.64697266 30.44888783 2.83188152 C31.90990852 5.94620165 32.13991613 7.91341753 32.1302948 11.33540344 C32.13441879 12.46977341 32.13854279 13.60414337 32.14279175 14.77288818 C32.13200592 16.00791077 32.12122009 17.24293335 32.11010742 18.51538086 C32.11076454 20.47694374 32.11076454 20.47694374 32.11143494 22.47813416 C32.11229456 26.05636062 32.09467437 29.63428449 32.07371306 33.21244073 C32.05494068 36.95469641 32.05319538 40.69695926 32.04963684 44.43925476 C32.04031801 51.5223485 32.01570648 58.60530309 31.98558837 65.6883356 C31.95203928 73.75357469 31.93555708 81.81882048 31.92050207 89.884112 C31.88915673 106.47181364 31.83639945 123.05937538 31.76953125 139.64697266 C32.88026001 139.62340698 32.88026001 139.62340698 34.01342773 139.59936523 C37.41121598 139.53649727 40.80888129 139.49781825 44.20703125 139.45947266 C45.37169922 139.43433594 46.53636719 139.40919922 47.73632812 139.38330078 C55.50483432 139.31765143 62.86540665 139.51982022 69.14453125 144.54931641 C69.68078125 145.22091797 70.21703125 145.89251953 70.76953125 146.58447266 C71.32640625 147.25349609 71.88328125 147.92251953 72.45703125 148.61181641 C75.3955907 153.16833269 75.2476133 158.38807014 74.76953125 163.64697266 C72.93783627 169.37101946 68.70479066 173.36583865 63.76953125 176.64697266 C59.1825427 177.9269175 54.58994237 177.79481071 49.86767578 177.79223633 C48.98086121 177.79559494 48.09404663 177.79895355 47.18035889 177.80241394 C44.25433952 177.81189789 41.32837753 177.81386575 38.40234375 177.81494141 C36.36359636 177.81815567 34.3248492 177.82151988 32.28610229 177.82502747 C28.01413437 177.83101227 23.74218666 177.83286802 19.47021484 177.83227539 C14.00386348 177.83217379 8.53764206 177.84582726 3.07132149 177.8630476 C-1.13921704 177.87418122 -5.34972429 177.87619418 -9.56027603 177.87566566 C-11.57524183 177.87684367 -13.59020849 177.88125538 -15.60515976 177.88899803 C-18.42680647 177.89882567 -21.24817273 177.89590893 -24.06982422 177.88989258 C-24.89707001 177.89551208 -25.7243158 177.90113159 -26.57662964 177.90692139 C-32.25034748 177.87627313 -37.63042825 177.52714766 -42.375 174.09619141 C-47.90787041 168.25233999 -49.68922774 164.19418473 -49.47265625 156.07275391 C-48.87272415 150.06375657 -45.64863049 146.76020162 -41.33984375 142.94384766 C-34.4009181 138.67769337 -26.65109225 139.41050991 -18.79296875 139.52197266 C-17.58447266 139.53099609 -16.37597656 139.54001953 -15.13085938 139.54931641 C-12.16385597 139.57277098 -9.19726732 139.60559471 -6.23046875 139.64697266 C-6.23323413 138.96098149 -6.23599951 138.27499033 -6.23884869 137.56821156 C-6.30510344 120.8760748 -6.35474683 104.1839797 -6.38590527 87.49174213 C-6.40137378 79.41949555 -6.42246296 71.34733673 -6.45678711 63.27514648 C-6.48668999 56.2393741 -6.50604387 49.20366529 -6.51273423 42.16783112 C-6.51664501 38.4424329 -6.52583539 34.71721654 -6.54765892 30.9918766 C-6.57182474 26.83296264 -6.57243817 22.6743648 -6.57104492 18.51538086 C-6.58183075 17.28035828 -6.59261658 16.04533569 -6.60372925 14.77288818 C-6.59960526 13.63851822 -6.59548126 12.50414825 -6.5912323 11.33540344 C-6.59399768 10.35185033 -6.59676306 9.36829721 -6.59961224 8.35493946 C-5.96099649 3.67017514 -4.75332673 0.95195857 0 0 Z " fill="#573E09" transform="translate(243.23046875,296.35302734375)"/>
<path d="M0 0 C12.87 0 25.74 0 39 0 C39 2.31 39 4.62 39 7 C34.38 7 29.76 7 25 7 C25 12.61 25 18.22 25 24 C21.04 24 17.08 24 13 24 C13 18.39 13 12.78 13 7 C8.71 7 4.42 7 0 7 C0 4.69 0 2.38 0 0 Z " fill="#573E09" transform="translate(237,115)"/>
</svg>
