<?xml version="1.0" encoding="UTF-8"?>
<svg version="1.1" xmlns="http://www.w3.org/2000/svg" width="512" height="512">
<path d="M0 0 C8.58 0 17.16 0 26 0 C29 9 29 9 30 13 C32.61908033 14.48266581 35.05196669 15.67012707 37.8125 16.8125 C38.53759766 17.13669922 39.26269531 17.46089844 40.00976562 17.79492188 C44.88286839 19.90905968 44.88286839 19.90905968 50 19 C51.60590715 18.18907006 53.18941006 17.33254423 54.75 16.4375 C55.54921875 15.98246094 56.3484375 15.52742188 57.171875 15.05859375 C57.77515625 14.70925781 58.3784375 14.35992187 59 14 C63.66536811 16.46422639 67.06808942 19.73490453 70.75 23.4375 C71.33910156 24.01048828 71.92820312 24.58347656 72.53515625 25.17382812 C73.09589844 25.73392578 73.65664063 26.29402344 74.234375 26.87109375 C74.74194336 27.37568115 75.24951172 27.88026855 75.77246094 28.40014648 C77.21513997 30.28039225 77.71491786 31.65264667 78 34 C76.93463043 35.60375152 75.7989159 37.16140933 74.625 38.6875 C72.36878936 42.58315343 71.72718956 45.07311106 72.734375 49.39453125 C74.60391757 55.23228474 76.50047317 60.6664977 82.08984375 63.6484375 C85.27214451 64.44138624 85.27214451 64.44138624 88.42578125 64.6484375 C89.70001953 64.82246094 89.70001953 64.82246094 91 65 C93.17237362 68.25856044 93.25602651 69.22642344 93.265625 73 C93.26820313 73.969375 93.27078125 74.93875 93.2734375 75.9375 C93.26570312 76.948125 93.25796875 77.95875 93.25 79 C93.25773438 80.010625 93.26546875 81.02125 93.2734375 82.0625 C93.27085937 83.031875 93.26828125 84.00125 93.265625 85 C93.26336914 85.886875 93.26111328 86.77375 93.25878906 87.6875 C93 90 93 90 91 93 C89.11029564 93.25807799 87.21243191 93.4581302 85.3125 93.625 C82.06183845 94.35787642 79.82544376 95.00442661 77.65673828 97.62011719 C74.76173346 102.30283692 72.52249706 107.48263443 72 113 C73.04453879 116.58363505 74.32550122 118.79441837 76.63671875 121.703125 C78 124 78 124 77.63671875 126.34375 C75.28515889 130.160124 72.31290835 133.12052582 69.125 136.25 C68.49980469 136.88679687 67.87460937 137.52359375 67.23046875 138.1796875 C66.62074219 138.78554688 66.01101563 139.39140625 65.3828125 140.015625 C64.82996582 140.56508789 64.27711914 141.11455078 63.70751953 141.68066406 C61.77217712 143.17603015 60.42404373 143.72038537 58 144 C56.39624848 142.93463043 54.83859067 141.7989159 53.3125 140.625 C49.41684657 138.36878936 46.92688894 137.72718956 42.60546875 138.734375 C36.76771526 140.60391757 31.3335023 142.50047317 28.3515625 148.08984375 C27.55861376 151.27214451 27.55861376 151.27214451 27.3515625 154.42578125 C27.17753906 155.70001953 27.17753906 155.70001953 27 157 C23.74143956 159.17237362 22.77357656 159.25602651 19 159.265625 C18.030625 159.26820313 17.06125 159.27078125 16.0625 159.2734375 C15.051875 159.26570312 14.04125 159.25796875 13 159.25 C11.989375 159.25773438 10.97875 159.26546875 9.9375 159.2734375 C8.4834375 159.26957031 8.4834375 159.26957031 7 159.265625 C6.113125 159.26336914 5.22625 159.26111328 4.3125 159.25878906 C2 159 2 159 -1 157 C-1.28369633 155.11155678 -1.50386094 153.21328354 -1.6875 151.3125 C-2.39336439 148.07956309 -2.96025775 145.82144343 -5.61865234 143.72119141 C-7.6609463 142.53151056 -9.70092012 141.55162921 -11.875 140.625 C-12.58358154 140.32118408 -13.29216309 140.01736816 -14.0222168 139.7043457 C-17.22845427 138.49486071 -19.42623569 137.85696072 -22.7890625 138.6953125 C-24.72717197 139.83900254 -26.6305117 140.99779557 -28.5 142.25 C-32 144 -32 144 -34.265625 143.54296875 C-38.21429306 141.31479177 -41.1010812 138.29308163 -44.25 135.0625 C-44.88679688 134.42892578 -45.52359375 133.79535156 -46.1796875 133.14257812 C-50.86628879 128.40113363 -50.86628879 128.40113363 -52 125 C-51.0390625 122.87890625 -51.0390625 122.87890625 -49.625 120.5625 C-47.07468161 116.53383425 -47.07468161 116.53383425 -46 112 C-46.89085948 109.54512355 -47.82347785 107.28499088 -48.9375 104.9375 C-52 98.3575388 -52 98.3575388 -52 95 C-53.01320312 94.92652344 -53.01320312 94.92652344 -54.046875 94.8515625 C-54.93890625 94.77679688 -55.8309375 94.70203125 -56.75 94.625 C-57.63171875 94.55539062 -58.5134375 94.48578125 -59.421875 94.4140625 C-62 94 -62 94 -66 92 C-66 83.42 -66 74.84 -66 66 C-55.875 62.625 -55.875 62.625 -52 63 C-51.89042969 62.29875 -51.78085938 61.5975 -51.66796875 60.875 C-50.67981357 56.62188763 -48.72526351 52.87225495 -46.86328125 48.9375 C-45.81519925 45.37117574 -46.25604241 44.21310973 -48 41 C-49.13778693 39.00414785 -50.29640515 37.02652174 -51.48828125 35.0625 C-52 33 -52 33 -51.01171875 30.671875 C-48.42921185 27.24190467 -45.55235111 24.26174333 -42.5 21.25 C-41.91863281 20.66089844 -41.33726562 20.07179688 -40.73828125 19.46484375 C-40.17496094 18.90410156 -39.61164063 18.34335937 -39.03125 17.765625 C-38.52142578 17.25805664 -38.01160156 16.75048828 -37.48632812 16.22753906 C-36 15 -36 15 -33 14 C-31.1328125 14.70703125 -31.1328125 14.70703125 -29.125 15.8125 C-27.75733349 16.55533063 -26.38179553 17.28379462 -25 18 C-24.236875 18.43441406 -23.47375 18.86882812 -22.6875 19.31640625 C-18.83774342 20.29563212 -16.27609737 18.80764817 -12.875 17.125 C-6.31113537 14 -6.31113537 14 -3 14 C-2.95101562 13.32453125 -2.90203125 12.6490625 -2.8515625 11.953125 C-2.77679688 11.06109375 -2.70203125 10.1690625 -2.625 9.25 C-2.55539063 8.36828125 -2.48578125 7.4865625 -2.4140625 6.578125 C-2 4 -2 4 0 0 Z M-18.875 54.3125 C-25.51013985 63.46711512 -28.0222825 73.81248584 -27 85 C-24.43492685 96.50618527 -18.7988588 106.25489514 -9 113 C1.52440573 118.70564693 12.31417895 121.04694246 24.125 117.875 C34.66685673 114.22589575 43.13090197 108.01634942 48.5703125 98.15234375 C53.5329495 87.61737435 54.9077321 76.63622608 51.03125 65.4375 C46.57286867 54.89950777 39.57068254 46.45820089 28.94921875 41.7421875 C11.55142556 35.11777727 -6.92802941 39.95584319 -18.875 54.3125 Z " fill="#000000" transform="translate(243,309)"/>
<path d="M0 0 C1.3463855 0.34276726 1.3463855 0.34276726 2.7199707 0.69245911 C4.60996501 1.1756013 6.49903767 1.6623621 8.38720703 2.15258789 C11.21263514 2.88484749 14.04148477 3.60244907 16.87109375 4.31835938 C25.74188657 6.58576371 34.53573135 8.99916739 43.23046875 11.875 C43.9512561 12.11244431 44.67204346 12.34988861 45.41467285 12.5945282 C55.62613224 16.06909661 65.49195925 20.840415 71.1171875 30.375 C76.72699734 41.92347061 76.40677281 55.1854916 76.75268555 67.73657227 C76.81191321 69.87336138 76.8771983 72.00989992 76.94335938 74.14648438 C77.39818583 89.37295356 77.26919584 104.57897151 76.93261719 119.80639648 C76.89401724 121.62402868 76.85922301 123.44174546 76.828125 125.25952148 C76.40159928 150.07132213 76.40159928 150.07132213 71.75 155.76953125 C62.11233995 163.23871779 60.05293278 158.70703125 41.25 158.70703125 C40.92 132.96703125 40.59 107.22703125 40.25 80.70703125 C34.89439874 79.63332796 34.89439874 79.63332796 30.25 80.70703125 C29.34373608 84.59797393 29.09892562 88.25036028 29.04467773 92.24145508 C29.02473251 93.5424263 29.00478729 94.84339752 28.98423767 96.18379211 C28.96725711 97.59388105 28.95037817 99.00397121 28.93359375 100.4140625 C28.91300625 101.86423817 28.89200932 103.31440807 28.87062073 104.76457214 C28.81558545 108.5702954 28.76609489 112.37607114 28.71777344 116.18188477 C28.66742249 120.0698714 28.61180757 123.95778238 28.55664062 127.84570312 C28.44928608 135.46608166 28.3477913 143.08652336 28.25 150.70703125 C23.74059893 149.24922015 19.62746631 147.49284887 15.375 145.39453125 C3.52934637 139.72446296 -8.93186448 136.4067413 -21.75 133.70703125 C-17.74598359 127.3054731 -13.64844325 121.05068386 -9.1328125 114.99609375 C-6.76301524 111.07320901 -6.56824143 107.48373364 -7.19920349 103.01911926 C-7.32404114 102.10640762 -7.44887878 101.19369598 -7.57749939 100.25332642 C-7.72135574 99.26456512 -7.8652121 98.27580383 -8.01342773 97.25708008 C-8.15958527 96.20617691 -8.3057428 95.15527374 -8.45632935 94.07252502 C-8.94095634 90.60189384 -9.43727616 87.13303948 -9.93359375 83.6640625 C-10.2720908 81.25472047 -10.60981337 78.84526951 -10.9467926 76.43571472 C-11.83554066 70.09463532 -12.73402365 63.75497373 -13.63476562 57.41558838 C-14.72916413 49.70150494 -15.81299547 41.98593135 -16.89748478 34.27044964 C-17.74092615 28.27040403 -18.58627057 22.27064836 -19.43736267 16.27168274 C-19.59299179 15.17137726 -19.74862091 14.07107178 -19.90896606 12.93742371 C-20.20053573 10.87617685 -20.49314853 8.81507718 -20.78697205 6.75415039 C-20.91462952 5.84989822 -21.04228699 4.94564606 -21.17381287 4.01399231 C-21.28572684 3.22590085 -21.39764082 2.43780939 -21.51294613 1.62583637 C-21.75 -0.29296875 -21.75 -0.29296875 -21.75 -2.29296875 C-15.80411633 -5.26591059 -6.13568274 -1.59660316 0 0 Z " fill="#000000" transform="translate(294.75,125.29296875)"/>
<path d="M0 0 C-1.66767558 14.13446456 -3.57385032 28.22848992 -5.58285904 42.31775665 C-5.99057719 45.1801814 -6.39626017 48.04288717 -6.80123901 50.90570068 C-7.00488477 52.34504786 -7.00488477 52.34504786 -7.21264458 53.81347275 C-7.48966528 55.77171043 -7.76663873 57.72995479 -8.04356575 59.68820572 C-8.75201408 64.69154654 -9.4656449 69.69406331 -10.1887207 74.6953125 C-10.8980103 79.60369363 -11.59375851 84.51382598 -12.28038597 89.42542648 C-12.54217544 91.28004628 -12.808914 93.1339748 -13.08080482 94.98714066 C-13.45778683 97.56092166 -13.81740342 100.13658199 -14.1730957 102.71337891 C-14.34512512 103.84473518 -14.34512512 103.84473518 -14.52062988 104.99894714 C-15.24966705 110.47804559 -14.61673581 114.41087743 -11.68725586 119.10229492 C-11.20135986 119.72209229 -10.71546387 120.34188965 -10.21484375 120.98046875 C-9.68439453 121.66947266 -9.15394531 122.35847656 -8.60742188 123.06835938 C-8.05634766 123.76767578 -7.50527344 124.46699219 -6.9375 125.1875 C-5.83889414 126.59488939 -4.74368614 128.00493956 -3.65234375 129.41796875 C-3.16757568 130.03438232 -2.68280762 130.6507959 -2.18334961 131.28588867 C-1 133 -1 133 0 136 C-0.94617188 136.21914063 -1.89234375 136.43828125 -2.8671875 136.6640625 C-17.69938581 140.18314873 -31.89445183 144.47133883 -45.375 151.6796875 C-48 153 -48 153 -50 153 C-50.00808685 152.18202942 -50.01617371 151.36405884 -50.02450562 150.52130127 C-50.10245964 142.81114668 -50.18975266 135.10118111 -50.28752708 127.39125443 C-50.33746426 123.42753853 -50.38379444 119.46384895 -50.421875 115.5 C-50.45876052 111.6743701 -50.50512918 107.84896174 -50.55806351 104.02352142 C-50.57659013 102.56433754 -50.59170451 101.1051062 -50.60334396 99.64585114 C-50.62023638 97.60123529 -50.64927753 95.5571249 -50.68115234 93.51269531 C-50.69447601 92.34909485 -50.70779968 91.18549438 -50.7215271 89.9866333 C-50.99208627 87.08487512 -51.36598156 85.39135212 -53 83 C-55.3566226 81.91194854 -55.3566226 81.91194854 -58 82 C-60.26333393 82.95090911 -60.26333393 82.95090911 -62 85 C-62.41191649 87.57636737 -62.56444125 89.73729357 -62.54589844 92.31713867 C-62.55623611 93.05884811 -62.56657379 93.80055756 -62.57722473 94.56474304 C-62.60671969 97.01603813 -62.60815324 99.46650994 -62.609375 101.91796875 C-62.62435222 103.61763592 -62.6410784 105.31728851 -62.65948486 107.016922 C-62.70322247 111.4901902 -62.72317153 115.96326208 -62.73822021 120.43670654 C-62.75776832 125.00154257 -62.79974083 129.56616584 -62.83984375 134.13085938 C-62.91521516 143.08717406 -62.96546455 152.0434413 -63 161 C-67.18696635 161.17518688 -71.37298335 161.28115483 -75.5625 161.375 C-76.74392578 161.42527344 -77.92535156 161.47554687 -79.14257812 161.52734375 C-89.00569422 161.69311041 -89.00569422 161.69311041 -93.27734375 158.1015625 C-101.07133725 150.10467003 -98.16359132 133.6229626 -98.16796875 123.1484375 C-98.17119069 121.32158381 -98.17455543 119.49473037 -98.17805481 117.6678772 C-98.18401531 113.85035607 -98.18589796 110.03285748 -98.18530273 106.21533203 C-98.18520144 101.37116707 -98.19883353 96.52714975 -98.21607494 91.68301964 C-98.22730404 87.91129926 -98.22921861 84.13961332 -98.22869301 80.36787796 C-98.22985754 78.58446368 -98.2341912 76.80104805 -98.24202538 75.0176506 C-98.2772572 66.16757736 -98.11408098 57.43118998 -97.1027832 48.63134766 C-97.02415889 47.94422888 -96.94553457 47.2571101 -96.8645277 46.54916954 C-95.72565259 37.69364809 -92.87986664 29.88877496 -85.73046875 24.19140625 C-72.53591212 15.73959348 -58.15207727 11.68810959 -43.125 7.875 C-41.50628756 7.45528565 -39.88779695 7.03471479 -38.26953125 6.61328125 C-34.30070805 5.58384489 -30.32587546 4.58069813 -26.34729004 3.58972168 C-23.983055 2.99574282 -21.62399174 2.38359246 -19.26464844 1.77050781 C-17.75736188 1.39048022 -16.24988269 1.01121565 -14.7421875 0.6328125 C-14.06382843 0.45241425 -13.38546936 0.27201599 -12.68655396 0.08615112 C-8.02939375 -1.05683729 -4.61765363 -0.92173659 0 0 Z " fill="#000000" transform="translate(239,123)"/>
<path d="M0 0 C1.22265625 1.2265625 1.22265625 1.2265625 1.22265625 3.2265625 C0.18367187 3.69964844 -0.8553125 4.17273438 -1.92578125 4.66015625 C-16.49590595 11.48788003 -27.14451739 19.66923255 -32.77734375 35.2265625 C-36.98338159 50.93653165 -36.16702759 68.35834223 -36.77734375 84.2265625 C-75.38734375 84.2265625 -113.99734375 84.2265625 -153.77734375 84.2265625 C-153.77734375 51.89866062 -147.94671035 29.99235674 -125.77734375 6.8515625 C-91.79149165 -25.81700851 -37.35255986 -28.39111769 0 0 Z " fill="#000000" transform="translate(164.77734375,123.7734375)"/>
<path d="M0 0 C1.6865334 1.47762745 3.354415 2.97690191 5 4.5 C5.77601563 5.19609375 6.55203125 5.8921875 7.3515625 6.609375 C22.18955359 20.58054186 31.46388818 39.60937102 35 59.5 C35 67.42 35 75.34 35 83.5 C-3.61 83.5 -42.22 83.5 -82 83.5 C-82.33 73.93 -82.66 64.36 -83 54.5 C-84.13298266 41.86288576 -85.3538429 29.9660358 -93.828125 20.0234375 C-95 18.5 -95 18.5 -95 16.5 C-95.56589844 16.23832031 -96.13179688 15.97664063 -96.71484375 15.70703125 C-99.19362873 14.39772431 -101.31288857 12.85895758 -103.5625 11.1875 C-108.73860566 7.50019969 -114.14029377 4.91740732 -120 2.5 C-117.37839714 -4.81117816 -106.26456593 -9.0286201 -99.5625 -12.25 C-66.93757522 -26.27257983 -27.98262905 -22.29256799 0 0 Z " fill="#000000" transform="translate(466,124.5)"/>
<path d="M0 0 C8.85014362 7.83940298 13.36532145 20.0042264 14.11328125 31.5546875 C14.55990871 48.38369052 10.733318 64.36974437 -0.625 77.3125 C-2.10437023 78.85340809 -3.60216164 80.37703559 -5.125 81.875 C-5.63933594 82.38804688 -6.15367187 82.90109375 -6.68359375 83.4296875 C-15.52695302 91.49643449 -25.52011127 93.3674854 -37.0078125 93.1484375 C-49.21642106 92.58306865 -57.65817897 85.6685384 -65.8125 77.1875 C-76.52322649 64.77873151 -80.96988519 48.67188487 -80.44140625 32.4765625 C-79.35508685 20.11129722 -75.7944332 9.1630856 -66.125 0.875 C-65.56296875 0.38386719 -65.0009375 -0.10726563 -64.421875 -0.61328125 C-46.00633308 -15.69755644 -18.56748382 -12.625889 0 0 Z " fill="#000000" transform="translate(289.125,20.125)"/>
<path d="M0 0 C9.32619191 8.04322371 15.50078296 18.44936613 16.55078125 30.890625 C16.8578542 45.03934503 14.03626587 56.18239484 4.21484375 66.91015625 C-5.88818267 76.01818764 -17.18450647 80.27054213 -30.78515625 79.91015625 C-43.66407751 78.55071456 -54.71580304 73.55274721 -63.03125 63.44921875 C-71.42475291 51.29826799 -72.91537191 40.30115838 -71.78515625 25.91015625 C-69.43081529 14.27298523 -62.20970552 4.86095104 -52.78515625 -2.08984375 C-36.10356367 -12.27983984 -15.76630289 -12.03554078 0 0 Z " fill="#000000" transform="translate(133.78515625,16.08984375)"/>
<path d="M0 0 C8.40686193 7.26963232 15.36799705 16.54071851 16.47412109 27.96459961 C17.03640601 42.60615798 15.48607265 54.24340391 5.5078125 65.75390625 C-3.74347012 74.97272823 -14.54579049 79.40226614 -27.52734375 80 C-39.25094657 79.89955297 -50.54158745 75.74903805 -59.19921875 67.66015625 C-69.44902557 56.27733737 -72.54086665 44.02449905 -71.89355469 29.10107422 C-70.98600676 18.05079093 -64.83508301 8.59243608 -56.90625 1.16015625 C-40.418744 -12.36151212 -17.0252031 -13.01764718 0 0 Z " fill="#000000" transform="translate(433.71875,16.02734375)"/>
<path d="M0 0 C16.86023079 14.49969333 27.36021288 31.03620466 37.19140625 50.7890625 C37.87203125 50.2528125 38.55265625 49.7165625 39.25390625 49.1640625 C42.19140625 47.7890625 42.19140625 47.7890625 45.87890625 48.4140625 C49.19140625 49.7890625 49.19140625 49.7890625 51.19140625 52.7890625 C50.98718333 59.46277588 48.81547779 64.64414236 45.94140625 70.6015625 C45.55855469 71.44654297 45.17570313 72.29152344 44.78125 73.16210938 C43.09729948 76.70741656 41.7346576 79.30977462 38.76953125 81.92578125 C35.22931833 83.11121618 33.76610299 83.01198507 30.19140625 81.7890625 C26.93119572 79.71071564 23.94640906 77.34229864 20.94140625 74.9140625 C20.12671875 74.27597656 19.31203125 73.63789063 18.47265625 72.98046875 C10.4220774 66.59598652 10.4220774 66.59598652 9.81640625 61.8515625 C10.19140625 58.7890625 10.19140625 58.7890625 11.81640625 56.4765625 C14.63241506 54.47571414 16.8097216 54.25693942 20.19140625 53.7890625 C15.63037689 44.1211359 10.97020894 35.13629404 4.19140625 26.7890625 C3.55460938 26.00015625 2.9178125 25.21125 2.26171875 24.3984375 C-14.16247086 5.00602085 -38.81066867 -6.34857967 -63.80859375 -9.2109375 C-91.95053383 -10.91235661 -117.95986252 -3.15576631 -139.80859375 14.7890625 C-140.52273437 15.33949219 -141.236875 15.88992188 -141.97265625 16.45703125 C-159.14650785 30.31242945 -168.58654016 52.18452188 -173.81640625 72.98828125 C-174.80859375 75.7890625 -174.80859375 75.7890625 -177.80859375 77.7890625 C-181.91461037 78.31164643 -183.95049081 78.4326397 -187.30859375 75.9140625 C-190.74219506 68.76072644 -187.5252528 60.8762094 -185.09106445 53.74511719 C-178.55726079 35.70001724 -168.23028783 20.42227325 -154.80859375 6.7890625 C-154.05320313 6.00917969 -153.2978125 5.22929687 -152.51953125 4.42578125 C-112.26278223 -34.516744 -42.59345752 -35.18647995 0 0 Z " fill="#000000" transform="translate(329.80859375,296.2109375)"/>
<path d="M0 0 C3.26274221 2.09481185 6.24481107 4.49214869 9.25 6.9375 C10.0646875 7.58396484 10.879375 8.23042969 11.71875 8.89648438 C17.52570153 13.52570153 17.52570153 13.52570153 20 16 C20.32742834 19.53622611 20.39952039 22.10695442 18.9375 25.375 C16.18228627 27.68582442 13.50480593 27.58671653 10 28 C14.77033044 38.24256235 19.79745995 47.23054539 27 56 C27.55042969 56.71414063 28.10085937 57.42828125 28.66796875 58.1640625 C44.28352013 77.51963483 69.98290344 87.97037186 94 91 C120.54252251 93.43250978 147.69239297 85.61470791 168.45214844 68.76904297 C186.38943601 53.61344774 198.57753492 33.69211562 203.12890625 10.55859375 C204.18437017 7.45846431 205.44840965 6.02722683 208 4 C211.94016013 3.43711998 214.05782196 3.39603972 217.4375 5.5625 C220.16071159 9.81071008 219.19802188 14.06415619 218.1875 18.83984375 C217.80674139 20.21000793 217.41016443 21.57584948 217 22.9375 C216.77924805 23.67331299 216.55849609 24.40912598 216.33105469 25.16723633 C207.13323658 54.30092067 185.99406427 79.62216274 159.12255859 94.00488281 C130.1838494 108.86631024 96.87528506 111.27375985 65.9375 101.375 C30.59001527 89.28153015 9.1987563 63.54658091 -7 31 C-8.0828125 31.7734375 -8.0828125 31.7734375 -9.1875 32.5625 C-12 34 -12 34 -14.625 33.875 C-17.27224989 32.89969741 -18.39972931 32.32039251 -20 30 C-21.20552404 25.32637756 -20.90584391 22.78048833 -18.83203125 18.453125 C-18.35056641 17.44378906 -17.86910156 16.43445313 -17.37304688 15.39453125 C-16.85806641 14.35683594 -16.34308594 13.31914062 -15.8125 12.25 C-15.31685547 11.19683594 -14.82121094 10.14367187 -14.31054688 9.05859375 C-8.58273496 -2.72995443 -8.58273496 -2.72995443 0 0 Z " fill="#000000" transform="translate(152,398)"/>
<path d="M0 0 C4.46222642 1.32214116 4.46222642 1.32214116 6.375 4 C6.75252342 6.85674953 6.75252342 6.85674953 6.75595093 10.4080658 C6.7606309 11.06117518 6.76531087 11.71428457 6.77013266 12.38718516 C6.7821171 14.57986204 6.77261247 16.77191788 6.76318359 18.96459961 C6.76724782 20.5348904 6.77258887 22.10517832 6.77911377 23.67546082 C6.79281206 27.94408172 6.78747812 32.21248555 6.77797651 36.48111033 C6.77039156 40.94489686 6.77742241 45.40866455 6.78213501 49.87245178 C6.78759653 57.37032413 6.78039116 64.86810789 6.76611328 72.3659668 C6.74979194 81.03711042 6.7550699 89.70804237 6.7715925 98.37918085 C6.78520318 105.81960041 6.78712889 113.25995621 6.77927649 120.7003842 C6.77459691 125.14610073 6.77398282 129.59171775 6.78388596 134.0374279 C6.79254708 138.21779226 6.78654946 142.39788362 6.76920319 146.57821846 C6.7652335 148.11330334 6.76638064 149.64841116 6.77299118 151.18348694 C6.78117825 153.27761917 6.77092065 155.37087435 6.75595093 157.46495056 C6.75481985 158.63726195 6.75368877 159.80957335 6.75252342 161.01740932 C6.33852419 164.28817396 5.64644838 165.65583791 3.375 168 C-0.00158473 169.41029637 -3.62730305 169.1336271 -7.24194336 169.14526367 C-7.8977388 169.14862228 -8.55353424 169.1519809 -9.22920227 169.15544128 C-11.39110218 169.16491873 -13.55292438 169.16689269 -15.71484375 169.16796875 C-17.22172579 169.17118325 -18.72860751 169.17454747 -20.23548889 169.17805481 C-23.39194462 169.18403782 -26.54837299 169.18589553 -29.70483398 169.18530273 C-33.7443933 169.18520109 -37.78377696 169.19885957 -41.82329464 169.21607494 C-44.93486839 169.22720611 -48.04639979 169.22922161 -51.15799141 169.22869301 C-52.64709644 169.22987119 -54.13620263 169.23428393 -55.62528801 169.24202538 C-57.70987051 169.2518492 -59.79407318 169.24893815 -61.87866211 169.24291992 C-63.06350693 169.24434494 -64.24835175 169.24576996 -65.46910095 169.24723816 C-69.76318625 168.91083268 -72.56537044 168.05962956 -75.625 165 C-76.19592231 157.80637889 -76.19592231 157.80637889 -74.49076843 155.397995 C-71.78843546 153.37317353 -69.76155335 153.63966668 -66.40942383 153.65942383 C-64.48777153 153.65976372 -64.48777153 153.65976372 -62.52729797 153.66011047 C-61.12887219 153.67543043 -59.73044996 153.69107842 -58.33203125 153.70703125 C-56.90142766 153.71262732 -55.47081831 153.71689737 -54.04020691 153.71989441 C-50.27698868 153.73134244 -46.51411844 153.76080885 -42.7510376 153.79400635 C-38.91024483 153.82470837 -35.06939577 153.8384 -31.22851562 153.85351562 C-23.69385186 153.88567894 -16.15947471 153.93687434 -8.625 154 C-8.62960896 153.23670285 -8.63421793 152.4734057 -8.63896656 151.68697834 C-8.74937178 133.1172158 -8.83212052 114.54751873 -8.88406086 95.97749805 C-8.90984628 86.99716724 -8.94500313 78.01705546 -9.00219727 69.03686523 C-9.05202204 61.21002628 -9.08428856 53.38334594 -9.09544247 45.55635279 C-9.10196287 41.41164973 -9.11729413 37.26740046 -9.15365028 33.12284279 C-9.1875955 29.22151071 -9.19805619 25.32081921 -9.19053841 21.41935349 C-9.19191364 19.98785483 -9.20185572 18.55633469 -9.22102737 17.12496376 C-9.24593422 15.16942993 -9.23693583 13.21355216 -9.22627258 11.25788879 C-9.23088155 10.16372052 -9.23549051 9.06955225 -9.24023914 7.94222736 C-8.14057558 2.68336134 -5.34602466 0 0 0 Z " fill="#000000" transform="translate(460.625,227)"/>
<path d="M0 0 C3.80007994 1.12594961 4.47766812 1.64237056 6.375 5 C6.74414349 7.81917953 6.74414349 7.81917953 6.73576355 11.13763428 C6.73988754 12.39684189 6.74401154 13.6560495 6.7482605 14.95341492 C6.73764375 16.34622407 6.72673933 17.73903106 6.71557617 19.13183594 C6.71472984 20.6003874 6.71520517 22.06894012 6.71690369 23.53749084 C6.71776481 27.52277524 6.70012015 31.50778904 6.67918181 35.49301052 C6.66043456 39.65835131 6.65866612 43.82369823 6.65510559 47.98907471 C6.64577938 55.87613728 6.62115782 63.76307517 6.59105712 71.65008283 C6.55753103 80.62943093 6.54103161 89.60878496 6.52597082 98.58818007 C6.49460876 117.05885741 6.44183707 135.52941868 6.375 154 C7.17013504 153.99333817 7.96527008 153.98667633 8.78450012 153.97981262 C16.2740646 153.91972759 23.76351239 153.87403905 31.25325489 153.84456348 C35.10391831 153.8289004 38.95438275 153.80765077 42.80493164 153.77368164 C46.52021429 153.74111054 50.23530544 153.72315183 53.95071983 153.71536827 C55.36893415 153.70982066 56.78713787 153.69898756 58.20527077 153.68280983 C60.18988467 153.6610681 62.17469086 153.65977487 64.15942383 153.65942383 C65.85486076 153.64943108 65.85486076 153.64943108 67.58454895 153.63923645 C70.375 154 70.375 154 72.23857117 155.40019226 C74.3204074 158.33089731 73.90555877 161.56570742 73.375 165 C71.97642745 167.16778745 71.09753781 167.76253909 68.67918396 168.55732727 C65.67591816 169.13430545 62.81714073 169.13541559 59.75805664 169.14526367 C59.1022612 169.14862228 58.44646576 169.1519809 57.77079773 169.15544128 C55.60889782 169.16491873 53.44707562 169.16689269 51.28515625 169.16796875 C49.77827421 169.17118325 48.27139249 169.17454747 46.76451111 169.17805481 C43.60805538 169.18403782 40.45162701 169.18589553 37.29516602 169.18530273 C33.2556067 169.18520109 29.21622304 169.19885957 25.17670536 169.21607494 C22.06513161 169.22720611 18.95360021 169.22922161 15.84200859 169.22869301 C14.35290356 169.22987119 12.86379737 169.23428393 11.37471199 169.24202538 C9.29012949 169.2518492 7.20592682 169.24893815 5.12133789 169.24291992 C3.93649307 169.24434494 2.75164825 169.24576996 1.53089905 169.24723816 C-1.65503904 168.99764669 -3.81161321 168.4968919 -6.625 167 C-9.01149404 163.42025894 -8.88227683 161.84517211 -8.89915466 157.5919342 C-8.90439134 156.93882482 -8.90962802 156.28571543 -8.91502339 155.61281484 C-8.93004758 153.42028173 -8.93072905 151.22798149 -8.93139648 149.03540039 C-8.93901627 147.4651093 -8.94744346 145.89482195 -8.95661926 144.32453918 C-8.97858696 140.05598218 -8.98736601 135.78749682 -8.99244571 131.51888967 C-8.99608611 128.85325152 -9.00232446 126.18763224 -9.0094471 123.52200127 C-9.03394792 114.2260035 -9.04699519 104.93006161 -9.05053711 95.6340332 C-9.05417456 86.96280799 -9.08408314 78.29193627 -9.12594169 69.62081915 C-9.16060275 62.18040564 -9.17608481 54.74010953 -9.17678314 47.2996158 C-9.17757729 42.85378679 -9.18637888 38.40831784 -9.21478081 33.9625721 C-9.24089062 29.78210312 -9.24320688 25.60229459 -9.22712517 21.42178154 C-9.22530508 19.88667744 -9.23205187 18.35153598 -9.24794388 16.81651306 C-9.268309 14.72190411 -9.25791409 12.62962699 -9.23973083 10.53504944 C-9.24174216 9.36273805 -9.24375349 8.19042665 -9.24582577 6.98259068 C-8.625 4 -8.625 4 -6.31314182 1.59155941 C-3.625 0 -3.625 0 0 0 Z " fill="#000000" transform="translate(53.625,227)"/>
<path d="M0 0 C3.3 0 6.6 0 10 0 C11.83270403 12.88191207 13.65867072 25.76475959 15.47612 38.64883327 C16.32030718 44.63183983 17.16678305 50.61450366 18.01855469 56.59643555 C18.84097283 62.37283063 19.65729354 68.15005793 20.4694519 73.92790413 C20.77986113 76.12852553 21.09244012 78.32884204 21.40725708 80.5288372 C21.84892435 83.61796556 22.2827586 86.70810282 22.71484375 89.79858398 C22.84575409 90.70130035 22.97666443 91.60401672 23.11154175 92.53408813 C25.05005004 106.58417152 25.05005004 106.58417152 22.88598633 111.56298828 C22.37318115 112.22540527 21.86037598 112.88782227 21.33203125 113.5703125 C20.48608398 114.69759766 20.48608398 114.69759766 19.62304688 115.84765625 C18.72682617 116.97494141 18.72682617 116.97494141 17.8125 118.125 C17.23435547 118.88425781 16.65621094 119.64351563 16.06054688 120.42578125 C14.92428115 121.91769173 13.77883241 123.40266077 12.62353516 124.87988281 C11.07874461 126.8971702 9.63410891 128.95847264 8.19921875 131.0546875 C7.11060547 132.51261719 7.11060547 132.51261719 6 134 C5.34 134 4.68 134 4 134 C2.76660156 132.56640625 2.76660156 132.56640625 1.390625 130.5625 C0.62878906 129.46615234 0.62878906 129.46615234 -0.1484375 128.34765625 C-0.67695313 127.57292969 -1.20546875 126.79820312 -1.75 126 C-2.7852415 124.49915993 -3.82169766 122.99915697 -4.859375 121.5 C-5.37177734 120.74847656 -5.88417969 119.99695313 -6.41210938 119.22265625 C-7.96890668 116.9838541 -7.96890668 116.9838541 -9.72851562 114.93359375 C-10.27701172 114.27488281 -10.82550781 113.61617188 -11.390625 112.9375 C-11.89110352 112.36902344 -12.39158203 111.80054688 -12.90722656 111.21484375 C-15.78826972 105.37551766 -13.60472449 97.04465145 -12.71484375 90.8203125 C-12.57829376 89.83403366 -12.44174377 88.84775482 -12.30105591 87.83158875 C-11.85169564 84.59531646 -11.39465368 81.36017977 -10.9375 78.125 C-10.62314086 75.87205525 -10.30926437 73.61904311 -9.99584961 71.3659668 C-9.17209246 65.45360328 -8.34180296 59.54217517 -7.51013184 53.63092041 C-6.66164771 47.59173969 -5.81936948 41.55169389 -4.9765625 35.51171875 C-3.32376761 23.67362617 -1.66406771 11.83651286 0 0 Z " fill="#000000" transform="translate(251,126)"/>
</svg>
