<?xml version="1.0" encoding="UTF-8"?>
<svg version="1.1" xmlns="http://www.w3.org/2000/svg" width="512" height="512">
<path d="M0 0 C126.72 0 253.44 0 384 0 C384 26.73 384 53.46 384 81 C376.74 81.33 369.48 81.66 362 82 C341.67703799 85.92443404 325.26297965 93.1632758 309 106 C308.04673828 106.70189453 308.04673828 106.70189453 307.07421875 107.41796875 C292.02966852 119.08736929 282.65916813 138.28354503 277 156 C276.65839844 157.03640625 276.31679688 158.0728125 275.96484375 159.140625 C271.2092563 176.74735807 272.21993783 197.76785204 278 215 C278.20898926 215.63115723 278.41797852 216.26231445 278.63330078 216.91259766 C283.94746874 232.56053342 292.4275258 245.3215184 304 257 C304.62777344 257.67675781 305.25554687 258.35351562 305.90234375 259.05078125 C309.85781746 263.24823688 314.26000075 266.42766071 319.05859375 269.6171875 C319.69925781 270.07351563 320.33992188 270.52984375 321 271 C321 271.33 321 271.66 321 272 C281.4825923 272.09152688 241.96519841 272.16202416 202.44770592 272.20426132 C197.783822 272.20926423 193.11993829 272.21444151 188.45605469 272.21972656 C187.52754736 272.2207758 186.59904002 272.22182505 185.64239611 272.22290608 C170.60204326 272.24031811 155.56175149 272.27186019 140.52143489 272.30861118 C125.09222041 272.34599842 109.66303795 272.36823116 94.23378003 272.37635398 C84.71071701 272.38184636 75.18782659 272.39920242 65.66481669 272.43166587 C59.13725962 272.45278639 52.60979197 272.45920564 46.08220319 272.45400551 C42.31434566 272.45143988 38.54679003 272.45541219 34.77898598 272.4768219 C30.69522229 272.49985773 26.61210352 272.49196397 22.52828979 272.48101807 C21.33568192 272.49266943 20.14307405 272.5043208 18.91432655 272.51632524 C12.82198466 272.47202561 8.63151176 272.40238351 4 268 C-0.74037647 262.77787125 -0.55891434 258.02906244 -0.48101807 251.3319397 C-0.48444214 250.25951019 -0.48786621 249.18708069 -0.49139404 248.08215332 C-0.49801505 244.47718729 -0.47592155 240.87296451 -0.45410156 237.26806641 C-0.45287628 234.64411124 -0.45341009 232.02015475 -0.45556259 229.39620018 C-0.4576876 223.07788064 -0.43923455 216.75978886 -0.41355728 210.44152781 C-0.38474097 203.13182943 -0.38157741 195.82221051 -0.37841797 188.51245117 C-0.35742232 169.21659806 -0.30157778 149.9207956 -0.25 130.625 C-0.1675 87.51875 -0.085 44.4125 0 0 Z M42 59 C39.8718737 62.619331 39.74740595 65.88546593 39.73930359 70.0276947 C39.73221878 71.23753525 39.72513397 72.44737579 39.71783447 73.69387817 C39.72031189 75.01298187 39.72278931 76.33208557 39.7253418 77.69116211 C39.72099239 79.10086843 39.71580848 80.51057238 39.70985413 81.92027283 C39.6964777 85.74259846 39.69588392 89.56482513 39.69841743 93.3871696 C39.69948802 96.58050981 39.69460153 99.77383007 39.689812 102.96716601 C39.6787216 110.50180753 39.67827684 118.03639919 39.68432617 125.57104492 C39.690367 133.33900967 39.67805117 141.10679334 39.6567561 148.87472719 C39.63913279 155.54918825 39.63313988 162.2235917 39.63639385 168.89807516 C39.63820562 172.8821779 39.63558109 176.86615145 39.62167931 180.85023308 C39.60909357 184.59725515 39.61105193 188.34399516 39.62409019 192.09101295 C39.62757899 194.11754722 39.61628362 196.14409012 39.60452271 198.17059326 C39.61153702 199.38325363 39.61855133 200.595914 39.6257782 201.84532166 C39.62561046 202.89520232 39.62544271 203.94508299 39.62526989 205.02677822 C40.07971794 208.63250618 41.01322841 210.95691628 43 214 C47.00293272 216.47570047 51.27237471 216.28444717 55.84996033 216.26069641 C56.63404111 216.26452196 57.41812189 216.26834751 58.2259627 216.27228898 C60.84984762 216.28259699 63.47351282 216.27863103 66.09741211 216.2746582 C67.98001813 216.27900588 69.86262238 216.28418922 71.745224 216.29014587 C76.85675794 216.30354075 81.96821796 216.30411402 87.07976604 216.30158257 C91.34676604 216.30051325 95.61375106 216.30539522 99.88074785 216.310188 C109.94679576 216.32128476 120.01280636 216.32171955 130.07885742 216.31567383 C140.46431992 216.3096322 150.84964699 216.32194949 161.23508638 216.3432439 C170.15156415 216.36085429 179.06799879 216.36686216 187.98449332 216.36360615 C193.30997592 216.36179234 198.63536192 216.36443933 203.96082878 216.37832069 C208.9685386 216.39088531 213.97603714 216.38896783 218.98374367 216.37590981 C220.82115627 216.37354154 222.65858368 216.37628763 224.49597931 216.38453293 C227.00525058 216.39498097 229.51381035 216.38691559 232.02305603 216.3742218 C232.74923046 216.38159609 233.47540488 216.38897037 234.22358459 216.39656812 C238.86591103 216.34720059 242.14456534 215.62629204 246 213 C248.1281263 209.380669 248.25259405 206.11453407 248.26069641 201.9723053 C248.26778122 200.76246475 248.27486603 199.55262421 248.28216553 198.30612183 C248.27968811 196.98701813 248.27721069 195.66791443 248.2746582 194.30883789 C248.27900761 192.89913157 248.28419152 191.48942762 248.29014587 190.07972717 C248.3035223 186.25740154 248.30411608 182.43517487 248.30158257 178.6128304 C248.30051198 175.41949019 248.30539847 172.22616993 248.310188 169.03283399 C248.3212784 161.49819247 248.32172316 153.96360081 248.31567383 146.42895508 C248.309633 138.66099033 248.32194883 130.89320666 248.3432439 123.12527281 C248.36086721 116.45081175 248.36686012 109.7764083 248.36360615 103.10192484 C248.36179438 99.1178221 248.36441891 95.13384855 248.37832069 91.14976692 C248.39090643 87.40274485 248.38894807 83.65600484 248.37590981 79.90898705 C248.37242101 77.88245278 248.38371638 75.85590988 248.39547729 73.82940674 C248.38846298 72.61674637 248.38144867 71.404086 248.3742218 70.15467834 C248.37438954 69.10479768 248.37455729 68.05491701 248.37473011 66.97322178 C247.92028206 63.36749382 246.98677159 61.04308372 245 58 C240.99706728 55.52429953 236.72762529 55.71555283 232.15003967 55.73930359 C231.36595889 55.73547804 230.58187811 55.73165249 229.7740373 55.72771102 C227.15015238 55.71740301 224.52648718 55.72136897 221.90258789 55.7253418 C220.01998187 55.72099412 218.13737762 55.71581078 216.254776 55.70985413 C211.14324206 55.69645925 206.03178204 55.69588598 200.92023396 55.69841743 C196.65323396 55.69948675 192.38624894 55.69460478 188.11925215 55.689812 C178.05320424 55.67871524 167.98719364 55.67828045 157.92114258 55.68432617 C147.53568008 55.6903678 137.15035301 55.67805051 126.76491362 55.6567561 C117.84843585 55.63914571 108.93200121 55.63313784 100.01550668 55.63639385 C94.69002408 55.63820766 89.36463808 55.63556067 84.03917122 55.62167931 C79.0314614 55.60911469 74.02396286 55.61103217 69.01625633 55.62409019 C67.17884373 55.62645846 65.34141632 55.62371237 63.50402069 55.61546707 C60.99474942 55.60501903 58.48618965 55.61308441 55.97694397 55.6257782 C55.25076954 55.61840391 54.52459512 55.61102963 53.77641541 55.60343188 C49.13408897 55.65279941 45.85543466 56.37370796 42 59 Z " fill="#000000" transform="translate(24,160)"/>
<path d="M0 0 C1.27620209 -0.01043099 2.55240417 -0.02086198 3.86727905 -0.03160906 C5.27610499 -0.02296159 6.68492865 -0.013935 8.09375 -0.00457001 C9.59608566 -0.00917996 11.09841681 -0.01553352 12.60073853 -0.02347898 C16.72589446 -0.04018263 20.85068041 -0.03192135 24.97583771 -0.01953411 C29.42581188 -0.01049015 33.87572209 -0.0244501 38.32568359 -0.0354538 C47.04190467 -0.0532506 55.75798806 -0.04939387 64.47421455 -0.03780323 C71.55736548 -0.02877375 78.64047779 -0.02754281 85.72363281 -0.0318985 C86.73131903 -0.03251143 87.73900524 -0.03312436 88.7772274 -0.03375587 C90.82425182 -0.03503476 92.87127623 -0.03633161 94.91830063 -0.03764623 C114.11825091 -0.04905543 133.31812483 -0.03593299 152.51806259 -0.01444477 C168.99645497 0.00342652 185.47473465 0.0003225 201.953125 -0.01811981 C221.08385067 -0.03952051 240.21450939 -0.04795676 259.34524536 -0.03567076 C261.38478596 -0.03439655 263.42432657 -0.03313906 265.46386719 -0.0318985 C266.96915009 -0.03097285 266.96915009 -0.03097285 268.50484276 -0.03002849 C275.58039327 -0.02657319 282.65590137 -0.03240782 289.73144531 -0.04181671 C298.35289265 -0.05302918 306.9741943 -0.05001249 315.59562492 -0.02869374 C319.99537043 -0.01817318 324.39487293 -0.01407856 328.7946167 -0.02729034 C332.82138187 -0.03919935 336.8476785 -0.03267663 340.87440109 -0.01138014 C342.33191845 -0.00690771 343.7894753 -0.00919477 345.24696732 -0.01888329 C347.22711758 -0.03103758 349.20737857 -0.01618445 351.1875 0 C352.28771484 0.00064941 353.38792969 0.00129882 354.52148438 0.00196791 C358.46194051 0.64505408 360.51739234 1.97334539 363.59375 4.50336456 C374.71237993 21.18130946 367.59375 44.45896939 367.59375 64.50336456 C240.87375 64.50336456 114.15375 64.50336456 -16.40625 64.50336456 C-16.40625 10.50336456 -16.40625 10.50336456 -12.40625 4.50336456 C-8.21681088 1.05793901 -5.39118966 0.00318219 0 0 Z M18.21875 27.12836456 C16.10668494 30.21522888 15.98179855 31.83165587 16.59375 35.50336456 C18.09375 38.00336456 18.09375 38.00336456 20.59375 39.50336456 C24.2654587 40.11531601 25.88188568 39.99042962 28.96875 37.87836456 C31.08081506 34.79150025 31.20570145 33.17507326 30.59375 29.50336456 C29.09375 27.00336456 29.09375 27.00336456 26.59375 25.50336456 C22.9220413 24.89141311 21.30561432 25.0162995 18.21875 27.12836456 Z M50.21875 27.12836456 C48.10668494 30.21522888 47.98179855 31.83165587 48.59375 35.50336456 C50.09375 38.00336456 50.09375 38.00336456 52.59375 39.50336456 C56.2654587 40.11531601 57.88188568 39.99042962 60.96875 37.87836456 C63.08081506 34.79150025 63.20570145 33.17507326 62.59375 29.50336456 C61.09375 27.00336456 61.09375 27.00336456 58.59375 25.50336456 C54.9220413 24.89141311 53.30561432 25.0162995 50.21875 27.12836456 Z M82.21875 27.12836456 C80.10668494 30.21522888 79.98179855 31.83165587 80.59375 35.50336456 C82.09375 38.00336456 82.09375 38.00336456 84.59375 39.50336456 C88.2654587 40.11531601 89.88188568 39.99042962 92.96875 37.87836456 C95.08081506 34.79150025 95.20570145 33.17507326 94.59375 29.50336456 C93.09375 27.00336456 93.09375 27.00336456 90.59375 25.50336456 C86.9220413 24.89141311 85.30561432 25.0162995 82.21875 27.12836456 Z " fill="#000000" transform="translate(40.40625,79.49663543701172)"/>
<path d="M0 0 C0.85078125 0.48339844 1.7015625 0.96679688 2.578125 1.46484375 C21.43273405 13.16419649 34.78420341 32.43010202 40.4375 53.75 C44.23985999 70.11020507 43.99501469 89.26064546 38 105 C37.42185547 106.58941406 37.42185547 106.58941406 36.83203125 108.2109375 C28.0640931 130.74084976 11.24013874 147.93552849 -10.8125 157.75 C-12.86221669 158.53426255 -14.92577061 159.28307693 -17 160 C-18.12019531 160.39316406 -19.24039063 160.78632813 -20.39453125 161.19140625 C-42.13619427 167.72528823 -66.39278978 165.59068293 -86.46191406 155.13256836 C-108.5666505 143.08022397 -123.84051442 124.84103006 -131.4375 100.875 C-136.39081142 83.77163771 -135.87913696 63.78648316 -130 47 C-129.649375 45.96359375 -129.29875 44.9271875 -128.9375 43.859375 C-120.13632145 20.51180412 -102.39066308 3.98573592 -79.98681641 -6.15869141 C-53.67849064 -17.29883525 -24.32145977 -13.93150283 0 0 Z M-59.125 39.9375 C-59.59728027 40.49816162 -60.06956055 41.05882324 -60.55615234 41.63647461 C-65.39597537 47.41750784 -70.06821084 53.32300118 -74.67138672 59.29345703 C-75.99305227 60.99107596 -77.33930931 62.6664075 -78.69140625 64.33984375 C-79.52393238 65.39283809 -80.35598659 66.44620577 -81.1875 67.5 C-81.92355469 68.4178125 -82.65960938 69.335625 -83.41796875 70.28125 C-85.28641775 73.49221421 -85.45912972 75.34226655 -85 79 C-82.76793569 81.84780619 -81.45007001 82.84997666 -78 84 C-76.15389468 84.08239169 -74.30494836 84.10743359 -72.45703125 84.09765625 C-70.84731445 84.09282227 -70.84731445 84.09282227 -69.20507812 84.08789062 C-68.08552734 84.07951172 -66.96597656 84.07113281 -65.8125 84.0625 C-64.68134766 84.05798828 -63.55019531 84.05347656 -62.38476562 84.04882812 C-59.58979073 84.03703498 -56.7949218 84.0205765 -54 84 C-54.01571045 84.9379541 -54.0314209 85.8759082 -54.04760742 86.84228516 C-54.09891965 90.34234205 -54.13643872 93.8419957 -54.16479492 97.34228516 C-54.17982543 98.85341727 -54.20025564 100.36450618 -54.22631836 101.87548828 C-54.26295689 104.05512187 -54.27978338 106.23417575 -54.29296875 108.4140625 C-54.3086792 109.7232666 -54.32438965 111.0324707 -54.34057617 112.38134766 C-53.97334892 116.28317015 -53.0568466 118.68641731 -51 122 C-48.15916359 123.42041821 -46.14522722 123.31452272 -43 123 C-40.15219381 120.76793569 -39.15002334 119.45007001 -38 116 C-37.9154613 113.5589224 -37.88394214 111.14740787 -37.90234375 108.70703125 C-37.90446617 107.64798836 -37.90446617 107.64798836 -37.90663147 106.56755066 C-37.91222236 104.31582374 -37.92477312 102.06419679 -37.9375 99.8125 C-37.94251618 98.28450665 -37.94707888 96.75651173 -37.95117188 95.22851562 C-37.9621888 91.48563865 -37.97944713 87.74283627 -38 84 C-37.30438965 84.01571045 -36.6087793 84.0314209 -35.89208984 84.04760742 C-32.71981029 84.11022863 -29.54766115 84.14907677 -26.375 84.1875 C-25.28058594 84.21263672 -24.18617188 84.23777344 -23.05859375 84.26367188 C-15.09976243 84.36948569 -15.09976243 84.36948569 -8 81 C-6.56441065 78.1288213 -6.68084431 76.19155693 -7 73 C-8.71183682 70.01088685 -8.71183682 70.01088685 -11.1875 67.125 C-11.6316626 66.57255615 -12.0758252 66.0201123 -12.53344727 65.45092773 C-14.00874063 63.6224773 -15.50399298 61.81152679 -17 60 C-18.05865556 58.69772215 -19.11592162 57.39431363 -20.171875 56.08984375 C-21.80605756 54.07240413 -23.44218501 52.05677211 -25.0859375 50.04711914 C-29.33630636 44.84935616 -33.49137034 39.58280313 -37.57397461 34.25219727 C-40.83186791 30.01687554 -40.83186791 30.01687554 -45.8125 28.625 C-51.81723071 29.33143891 -55.38553041 35.48532667 -59.125 39.9375 Z " fill="#000000" transform="translate(446,268)"/>
<path d="M0 0 C58.08 0 116.16 0 176 0 C176 38.61 176 77.22 176 117 C171.60690862 113.2344931 167.51134422 109.63249551 163.46362305 105.5612793 C162.95862778 105.05482376 162.45363251 104.54836823 161.93333435 104.02656555 C160.85137101 102.94083353 159.77056278 101.85394934 158.69083214 100.76599693 C156.98248701 99.04476653 155.27093059 97.32678654 153.55854797 95.60957336 C149.93202968 91.97170008 146.30949086 88.32988022 142.6875 84.6875 C138.47103322 80.44742245 134.25294587 76.20898326 130.03064919 71.97471046 C128.34346789 70.2810419 126.65932086 68.58439498 124.9752655 66.88761902 C123.94679225 65.85551537 122.91817954 64.82355067 121.8894043 63.79174805 C120.99118454 62.88829147 120.09296478 61.9848349 119.16752625 61.05400085 C116.7464413 58.75972158 115.62794873 58.11960928 112.375 57.5 C107.1675903 58.2714681 104.64892105 61.36914292 101 65 C100.24251465 65.74709229 100.24251465 65.74709229 99.46972656 66.50927734 C95.95253467 69.97961499 92.46771952 73.48026469 89 77 C85.75904935 75.58079247 83.64164495 73.86691752 81.1796875 71.33984375 C80.12974609 70.2734668 80.12974609 70.2734668 79.05859375 69.18554688 C78.33800781 68.44369141 77.61742187 67.70183594 76.875 66.9375 C75.43712439 65.46526807 73.99712292 63.99510844 72.5546875 62.52734375 C71.92030762 61.87499756 71.28592773 61.22265137 70.63232422 60.55053711 C68.53296432 58.556365 67.23287061 58.04435631 64.375 57.5 C55.78937348 58.77194467 48.53871478 69.34047924 42.55453682 75.37029839 C40.84639885 77.09134685 39.13502731 78.80912253 37.4228363 80.52613831 C33.79987947 84.16043205 30.18091958 87.79868955 26.5625 91.4375 C22.34309047 95.6805119 18.1220579 99.92188329 13.89683342 104.1591053 C12.20794716 105.8544892 10.52208825 107.55284508 8.83631897 109.25132751 C7.81102897 110.28024641 6.78560035 111.3090272 5.76000977 112.33764648 C4.41387352 113.69163795 4.41387352 113.69163795 3.0405426 115.07298279 C1 117 1 117 0 117 C0 78.39 0 39.78 0 0 Z M123 17.5625 C120.09395895 22.81916129 119.92753329 28.17037741 121 34 C123.20876165 39.23414291 126.67203246 43.90875058 131.88671875 46.40625 C138.10628073 48.15370549 144.71962612 48.19464544 150.4375 45 C155.37886647 41.29655415 158.41566591 37.27405513 159.51171875 31.1328125 C159.88725505 24.57344517 158.82171139 20.04802894 154.75390625 14.84765625 C150.25895782 10.11244331 146.62282547 8.76757927 140.0625 8.4375 C132.41073226 8.734006 127.57400263 11.45958284 123 17.5625 Z " fill="#000000" transform="translate(80,232)"/>
<path d="M0 0 C3.77669645 1.56903998 6.17152306 3.92394834 9.04394531 6.80102539 C9.53220795 7.28738968 10.02047058 7.77375397 10.52352905 8.27485657 C12.12998318 9.87761711 13.72914307 11.48744377 15.328125 13.09765625 C16.44305554 14.21377911 17.55835623 15.32953233 18.67401123 16.44493103 C21.00714154 18.77962356 23.3368783 21.11763266 25.6640625 23.45825195 C28.65410101 26.46532917 31.65072974 29.46573199 34.64967728 32.46392155 C36.95070487 34.76522032 39.24912279 37.0691102 41.54665375 39.37389946 C42.65131003 40.48174709 43.75658114 41.588982 44.8624649 42.69560432 C46.4020609 44.23735618 47.93832598 45.78234758 49.47363281 47.32836914 C50.34981262 48.20836075 51.22599243 49.08835236 52.12872314 49.99501038 C54 52 54 52 54 53 C19.02 53 -15.96 53 -52 53 C-48.3983839 48.79811455 -44.9800788 44.85582444 -41.09619141 40.98266602 C-40.17569 40.06224014 -39.2551886 39.14181427 -38.30679321 38.1934967 C-37.32177076 37.21357848 -36.33669259 36.23371626 -35.3515625 35.25390625 C-34.32858694 34.23279952 -33.30583472 33.211469 -32.28329468 32.18992615 C-29.61246639 29.52288647 -26.93864718 26.85886564 -24.26416016 24.19549561 C-21.52713264 21.4687615 -18.79299099 18.73913695 -16.05859375 16.00976562 C-10.70852452 10.67036911 -5.35528727 5.33416348 0 0 Z " fill="#000000" transform="translate(143,307)"/>
<path d="M0 0 C3.77669645 1.56903998 6.17152306 3.92394834 9.04394531 6.80102539 C9.53220795 7.28738968 10.02047058 7.77375397 10.52352905 8.27485657 C12.12998318 9.87761711 13.72914307 11.48744377 15.328125 13.09765625 C16.44305554 14.21377911 17.55835623 15.32953233 18.67401123 16.44493103 C21.00714154 18.77962356 23.3368783 21.11763266 25.6640625 23.45825195 C28.65410101 26.46532917 31.65072974 29.46573199 34.64967728 32.46392155 C36.95070487 34.76522032 39.24912279 37.0691102 41.54665375 39.37389946 C42.65131003 40.48174709 43.75658114 41.588982 44.8624649 42.69560432 C46.4020609 44.23735618 47.93832598 45.78234758 49.47363281 47.32836914 C50.34981262 48.20836075 51.22599243 49.08835236 52.12872314 49.99501038 C54 52 54 52 54 53 C42.86010705 54.60913003 30.67074086 56.32949266 21.11572266 49.34375 C15.53239228 44.50700237 10.67471309 39.04495541 5.8125 33.5 C4.06322225 31.61496467 2.3073871 29.73599243 0.54492188 27.86328125 C-3.71475372 23.30924314 -7.88779077 18.68741129 -12 14 C-10.21799313 10.14972009 -7.92324595 7.7200858 -4.875 4.75 C-3.96492187 3.85796875 -3.05484375 2.9659375 -2.1171875 2.046875 C-1.41851562 1.37140625 -0.71984375 0.6959375 0 0 Z " fill="#000000" transform="translate(191,307)"/>
<path d="M0 0 C0.66 0 1.32 0 2 0 C3.87397988 2.171437 5.63539824 4.34978401 7.375 6.625 C7.85710937 7.24246094 8.33921875 7.85992187 8.8359375 8.49609375 C11.7434667 12.24901866 14.35282899 16.02924349 17 20 C6.44 20 -4.12 20 -15 20 C-13.02 17.36 -11.04 14.72 -9 12 C-8.18015625 10.8759375 -7.3603125 9.751875 -6.515625 8.59375 C-5.76796875 7.5728125 -5.0203125 6.551875 -4.25 5.5 C-3.49203125 4.4584375 -2.7340625 3.416875 -1.953125 2.34375 C-1.30859375 1.5703125 -0.6640625 0.796875 0 0 Z " fill="#000000" transform="translate(399,316)"/>
<path d="M0 0 C3 0.125 3 0.125 4 1.125 C4.125 4.125 4.125 4.125 4 7.125 C3 8.125 3 8.125 0 8.25 C-3 8.125 -3 8.125 -4 7.125 C-4.125 4.125 -4.125 4.125 -4 1.125 C-3 0.125 -3 0.125 0 0 Z " fill="#000000" transform="translate(220,255.875)"/>
</svg>
