<?xml version="1.0" encoding="UTF-8"?>
<svg version="1.1" xmlns="http://www.w3.org/2000/svg" width="512" height="512">
<path d="M0 0 C6.12170185 2.46857997 11.73205787 5.9432702 17.34814453 9.37939453 C19.93290785 10.95899856 22.53691221 12.499154 25.15234375 14.02734375 C28.77455974 16.14675061 32.38700917 18.28142407 35.9921875 20.4296875 C42.66377868 24.40145614 49.36230018 28.32679739 56.0625 32.25 C57.29746267 32.97343931 58.53240724 33.69690952 59.76733398 34.42041016 C62.26552869 35.88395355 64.76383232 37.34731078 67.26220703 38.81054688 C72.74057987 42.01929537 78.21752247 45.2304835 83.69454956 48.44152832 C86.7129722 50.21112266 89.73149105 51.98055288 92.75 53.75 C93.95833379 54.45833255 95.16666713 55.16666588 96.375 55.875 C96.973125 56.225625 97.57125 56.57625 98.1875 56.9375 C161.625 94.125 161.625 94.125 163.43708801 95.18727112 C164.64677995 95.89639245 165.8564866 96.60548868 167.06620789 97.31455994 C170.06637508 99.07313255 173.06629457 100.83212481 176.06567383 102.59204102 C181.74942059 105.92642358 187.43577882 109.25613795 193.13021851 112.57223511 C195.83251189 114.14621129 198.53349478 115.72242855 201.234375 117.29882812 C202.52750176 118.05272103 203.82127617 118.80550424 205.11572266 119.55712891 C206.90560006 120.59651795 208.69325053 121.63964087 210.48046875 122.68359375 C212.01030396 123.57389282 212.01030396 123.57389282 213.57104492 124.48217773 C216 126 216 126 218 128 C201.83 128 185.66 128 169 128 C169 183.44 169 238.88 169 296 C158.11 296.33 147.22 296.66 136 297 C117.7324734 298.3700645 103.29676101 302.1523051 87.4140625 311.109375 C84 313 84 313 81 314 C81 302.45 81 290.9 81 279 C83.64 278.01 86.28 277.02 89 276 C102.15178761 270.62150775 111.00094153 261.46231522 117.09375 248.7109375 C121.03945092 238.07946557 120.44186555 224.10545686 116.3203125 213.671875 C109.68900465 200.25230527 99.47829994 191.74224998 85.5 186.75 C77.13254339 184.95697358 69.48174821 184.95187522 61 186 C60.27296875 184.44152344 60.27296875 184.44152344 59.53125 182.8515625 C55.50777354 174.40824292 51.36147165 166.95745473 45 160 C44.45988281 159.37996094 43.91976563 158.75992188 43.36328125 158.12109375 C33.35121466 147.28478924 17.44197233 138.80562168 2.51147461 137.83886719 C-20.47042388 137.46898915 -39.92059781 141.21265754 -57.1875 157.6875 C-65.12880605 166.00696348 -70.65903786 175.39803476 -75 186 C-75.71542969 185.90460938 -76.43085938 185.80921875 -77.16796875 185.7109375 C-90.61366179 184.21503892 -103.63230625 186.06580091 -114.6875 194.25 C-124.20922281 202.15957927 -131.85447306 212.35862434 -133.22094727 225.05249023 C-134.03015764 240.15946856 -131.28983408 252.10108264 -121.41015625 263.8984375 C-114.91813445 270.8945457 -107.11983572 275.09239798 -97.93359375 277.45703125 C-96 278 -96 278 -95 279 C-94.90560022 281.26991887 -94.88257774 283.54281967 -94.88647461 285.81469727 C-94.88635407 286.53840735 -94.88623354 287.26211744 -94.88610935 288.00775814 C-94.88685837 290.36067163 -94.89448607 292.71350685 -94.90234375 295.06640625 C-94.9038132 296.51493288 -94.90483389 297.96346004 -94.90539551 299.4119873 C-94.91064799 304.79549961 -94.92460908 310.17900057 -94.9375 315.5625 C-94.958125 327.586875 -94.97875 339.61125 -95 352 C-124.04 352 -153.08 352 -183 352 C-183 278.08 -183 204.16 -183 128 C-199.17 128 -215.34 128 -232 128 C-228.79827457 125.59870593 -225.72779273 123.59233319 -222.28515625 121.5859375 C-221.44705666 121.09602829 -221.44705666 121.09602829 -220.59202576 120.59622192 C-218.75015908 119.52022168 -216.90632251 118.44764469 -215.0625 117.375 C-213.75896259 116.61419264 -212.4555798 115.85312033 -211.15234375 115.09179688 C-208.44477139 113.51036538 -205.73653726 111.93007617 -203.02783203 110.35058594 C-197.44226004 107.09240535 -191.86480707 103.82040011 -186.287323 100.54840088 C-183.27527117 98.78160339 -180.26260216 97.01585889 -177.25 95.25 C-176.04166376 94.54167163 -174.83333042 93.83333829 -173.625 93.125 C-79.375 37.875 -79.375 37.875 -77.56277466 36.81266785 C-76.35351784 36.1037886 -75.14426899 35.39489576 -73.93502808 34.68598938 C-70.92838898 32.92339746 -67.92161523 31.16103609 -64.91455078 29.39916992 C-59.30790031 26.1138586 -53.7025814 22.82633903 -48.10186768 19.53091431 C-45.48842872 17.99336798 -42.87424592 16.45708883 -40.26000977 14.92089844 C-39.02738062 14.1961042 -37.79510644 13.47070584 -36.56323242 12.74462891 C-32.71885158 10.47883795 -28.86382775 8.23245388 -25 6 C-23.99348389 5.41210693 -22.98696777 4.82421387 -21.94995117 4.21850586 C-14.58889712 0.03097541 -8.50289091 -2.32800352 0 0 Z M-84.375 71.625 C-86.57907893 76.20270239 -86.7971639 80.00552411 -86 85 C-83.67031069 89.83858548 -80.83858548 92.67031069 -76 95 C-71.00552411 95.7971639 -67.20270239 95.57907893 -62.625 93.375 C-59.04092287 90.13226355 -56.40464759 87.53524104 -55.6171875 82.6015625 C-55.36116081 76.91777006 -56.06373068 73.35061345 -60 69 C-64.35061345 65.06373068 -67.91777006 64.36116081 -73.6015625 64.6171875 C-78.53524104 65.40464759 -81.13226355 68.04092287 -84.375 71.625 Z M-20.375 71.625 C-22.57907893 76.20270239 -22.7971639 80.00552411 -22 85 C-19.67031069 89.83858548 -16.83858548 92.67031069 -12 95 C-7.00552411 95.7971639 -3.20270239 95.57907893 1.375 93.375 C4.95907713 90.13226355 7.59535241 87.53524104 8.3828125 82.6015625 C8.63883919 76.91777006 7.93626932 73.35061345 4 69 C-0.35061345 65.06373068 -3.91777006 64.36116081 -9.6015625 64.6171875 C-14.53524104 65.40464759 -17.13226355 68.04092287 -20.375 71.625 Z M43.625 71.625 C41.42092107 76.20270239 41.2028361 80.00552411 42 85 C44.32968931 89.83858548 47.16141452 92.67031069 52 95 C56.99447589 95.7971639 60.79729761 95.57907893 65.375 93.375 C68.95907713 90.13226355 71.59535241 87.53524104 72.3828125 82.6015625 C72.63883919 76.91777006 71.93626932 73.35061345 68 69 C63.64938655 65.06373068 60.08222994 64.36116081 54.3984375 64.6171875 C49.46475896 65.40464759 46.86773645 68.04092287 43.625 71.625 Z M137 128 C137 133.28 137 138.56 137 144 C142.28 144 147.56 144 153 144 C153 138.72 153 133.44 153 128 C147.72 128 142.44 128 137 128 Z M137 160 C137 165.28 137 170.56 137 176 C142.28 176 147.56 176 153 176 C153 170.72 153 165.44 153 160 C147.72 160 142.44 160 137 160 Z M137 192 C137 197.28 137 202.56 137 208 C142.28 208 147.56 208 153 208 C153 202.72 153 197.44 153 192 C147.72 192 142.44 192 137 192 Z M-167 264 C-167 269.28 -167 274.56 -167 280 C-161.72 280 -156.44 280 -151 280 C-151 274.72 -151 269.44 -151 264 C-156.28 264 -161.56 264 -167 264 Z M-167 296 C-167 301.28 -167 306.56 -167 312 C-161.72 312 -156.44 312 -151 312 C-151 306.72 -151 301.44 -151 296 C-156.28 296 -161.56 296 -167 296 Z M-167 328 C-167 333.28 -167 338.56 -167 344 C-161.72 344 -156.44 344 -151 344 C-151 338.72 -151 333.44 -151 328 C-156.28 328 -161.56 328 -167 328 Z " fill="#000000" transform="translate(263,24)"/>
<path d="M0 0 C2.18379387 -0.00270035 4.36758655 -0.00658727 6.55137634 -0.01159668 C11.09743859 -0.0174549 15.6431839 -0.00904064 20.18920898 0.00976562 C26.00980792 0.03267573 31.82967383 0.0193326 37.65024662 -0.00452423 C42.14643384 -0.01897753 46.642447 -0.01438041 51.13863945 -0.00401306 C53.28560919 -0.00135084 55.43259488 -0.00459773 57.57954597 -0.01393127 C60.57307066 -0.02410249 63.56540204 -0.00859272 66.55883789 0.01367188 C67.87971657 0.00152649 67.87971657 0.00152649 69.22727966 -0.01086426 C74.6726318 0.064077 77.75949503 0.92837667 82.08984375 4.53125 C85.71818038 8.35055172 86.39984833 11.41404006 86.58984375 16.53125 C86.39984833 21.64845994 85.71818038 24.71194828 82.08984375 28.53125 C77.63444911 32.02095124 74.76493809 33.0303199 69.12573242 33.02954102 C68.12197823 33.03781921 68.12197823 33.03781921 67.09794617 33.04626465 C65.65427257 33.0555431 64.21051711 33.05572427 62.76683617 33.04767036 C60.47413576 33.03496969 58.18262707 33.04639466 55.88996887 33.06370544 C51.84427809 33.09035859 47.79888186 33.09600341 43.75311279 33.09460449 C37.28952198 33.09237363 30.82629753 33.10675705 24.36284828 33.15019035 C22.11777187 33.15994994 19.87328303 33.15135126 17.6282196 33.14149475 C7.010543 33.10787813 7.010543 33.10787813 -2.91015625 36.53125 C-7.50164514 41.23752611 -8.26514806 44.60039724 -8.19140625 50.98828125 C-7.77834381 54.72305418 -6.40141293 56.77066828 -3.91015625 59.53125 C1.39513648 63.47621126 6.53556849 63.65460741 12.98803711 63.6730957 C13.66187943 63.67657013 14.33572174 63.68004456 15.02998352 63.68362427 C16.48625308 63.69094819 17.94253355 63.69631139 19.39881706 63.69991493 C21.70709522 63.70711676 24.01516526 63.72280951 26.32337952 63.74125671 C32.88377077 63.79356081 39.44404322 63.84170653 46.00463867 63.85717773 C50.02418411 63.86727584 54.0431975 63.8966396 58.06253242 63.93849754 C59.58983901 63.95077992 61.11722078 63.95593385 62.64457512 63.95369911 C64.78437754 63.95133791 66.92265952 63.97356856 69.06225586 64.0012207 C70.27739365 64.00708694 71.49253143 64.01295319 72.74449158 64.01899719 C77.88008702 64.80537873 80.95001303 67.33142819 84.46484375 71.03125 C86.8628795 76.19625009 86.8436591 80.9314788 86.08984375 86.53125 C83.77937712 91.50763966 80.80532963 93.84140577 76.08984375 96.53125 C72.77140808 97.03004456 72.77140808 97.03004456 69.12573242 97.02954102 C68.45656296 97.03505981 67.78739349 97.04057861 67.09794617 97.04626465 C65.65427257 97.0555431 64.21051711 97.05572427 62.76683617 97.04767036 C60.47413576 97.03496969 58.18262707 97.04639466 55.88996887 97.06370544 C51.84427809 97.09035859 47.79888186 97.09600341 43.75311279 97.09460449 C37.28952198 97.09237363 30.82629753 97.10675705 24.36284828 97.15019035 C22.11777187 97.15994994 19.87328303 97.15135126 17.6282196 97.14149475 C7.010543 97.10787813 7.010543 97.10787813 -2.91015625 100.53125 C-7.50164514 105.23752611 -8.26514806 108.60039724 -8.19140625 114.98828125 C-7.77834381 118.72305418 -6.40141293 120.77066828 -3.91015625 123.53125 C1.39513648 127.47621126 6.53556849 127.65460741 12.98803711 127.6730957 C13.99880058 127.67830734 13.99880058 127.67830734 15.02998352 127.68362427 C16.48625308 127.69094819 17.94253355 127.69631139 19.39881706 127.69991493 C21.70709522 127.70711676 24.01516526 127.72280951 26.32337952 127.74125671 C32.88377077 127.79356081 39.44404322 127.84170653 46.00463867 127.85717773 C50.02418411 127.86727584 54.0431975 127.8966396 58.06253242 127.93849754 C59.58983901 127.95077992 61.11722078 127.95593385 62.64457512 127.95369911 C64.78437754 127.95133791 66.92265952 127.97356856 69.06225586 128.0012207 C70.27739365 128.00708694 71.49253143 128.01295319 72.74449158 128.01899719 C77.88008702 128.80537873 80.95001303 131.33142819 84.46484375 135.03125 C86.8628795 140.19625009 86.8436591 144.9314788 86.08984375 150.53125 C83.78401256 155.49765563 80.85930605 157.93556337 76.08984375 160.53125 C72.90776528 161.09743666 69.7844799 161.07848767 66.55883789 161.04882812 C65.61645264 161.0558374 64.67406738 161.06284668 63.703125 161.07006836 C60.5934482 161.08764224 57.48468582 161.07601888 54.375 161.0625 C52.19990363 161.0651971 50.02480844 161.06908134 47.84971619 161.07409668 C43.28763364 161.07999264 38.72586444 161.07143288 34.16381836 161.05273438 C28.35393249 161.03006718 22.54479082 161.04298966 16.7349329 161.06702423 C12.23836319 161.08158407 7.74196526 161.07682778 3.24538994 161.06651306 C1.10585884 161.06386744 -1.03368849 161.06703819 -3.17320061 161.07643127 C-18.57036212 161.12914982 -32.42079554 160.10849695 -46.28515625 152.71875 C-46.94942627 152.37545654 -47.61369629 152.03216309 -48.2980957 151.6784668 C-55.78190582 147.70483512 -62.13645676 142.73797695 -67.91015625 136.53125 C-68.57660156 135.84675781 -69.24304688 135.16226563 -69.9296875 134.45703125 C-74.28389418 129.8506218 -77.89583802 125.18664927 -81.09765625 119.71875 C-84.94825108 113.22469125 -88.4222033 108.77763589 -95.91015625 106.53125 C-101.60155965 105.28601782 -107.22302538 105.39026095 -113.01791382 105.39994812 C-114.14037274 105.39783241 -115.26283166 105.39571669 -116.41930449 105.39353687 C-120.18237816 105.38754296 -123.94541823 105.38853658 -127.70849609 105.3894043 C-130.40572798 105.38637244 -133.10295595 105.38292516 -135.80018616 105.37887573 C-141.60975512 105.37077283 -147.41931971 105.36582242 -153.22889328 105.36258507 C-162.41413972 105.35708076 -171.59934919 105.3401759 -180.78457642 105.32124329 C-183.92890733 105.314887 -187.07323835 105.30857852 -190.21756935 105.30226612 C-191.00331555 105.30068236 -191.78906175 105.2990986 -192.59861844 105.29746684 C-201.53774819 105.27953945 -210.47688053 105.26330807 -219.41601562 105.24829102 C-220.23294319 105.24691514 -221.04987076 105.24553927 -221.89155371 105.24412171 C-235.13244539 105.22218758 -248.3733275 105.21143388 -261.61423413 105.20392027 C-275.21533485 105.19584661 -288.81635367 105.1725498 -302.41740763 105.1359666 C-310.80304932 105.11395633 -319.18852259 105.1042724 -327.5741917 105.11046693 C-333.32149623 105.11364381 -339.06865697 105.1022964 -344.815917 105.07957252 C-348.1304071 105.06691809 -351.44451213 105.06290108 -354.75902367 105.07198906 C-358.35581845 105.08085523 -361.95171 105.06521802 -365.5484314 105.04350281 C-366.59104673 105.05194534 -367.63366206 105.06038788 -368.70787179 105.06908625 C-376.1179626 104.98635998 -381.52217721 103.50015846 -387.15234375 98.56640625 C-387.69117188 97.91542969 -388.23 97.26445312 -388.78515625 96.59375 C-389.33945312 95.94535156 -389.89375 95.29695313 -390.46484375 94.62890625 C-394.94427722 88.12767443 -394.58479353 81.15984083 -393.91015625 73.53125 C-392.22930042 66.87165667 -387.44637303 62.34577553 -381.91015625 58.53125 C-378.48342757 56.94838849 -375.79118802 56.28055097 -372.02528 56.2751236 C-371.06294126 56.2688915 -370.10060253 56.26265941 -369.10910201 56.25623846 C-368.05979451 56.25953743 -367.01048702 56.26283641 -365.92938232 56.26623535 C-364.24803393 56.25966345 -364.24803393 56.25966345 -362.5327189 56.25295877 C-358.76884256 56.24061646 -355.00510519 56.24244844 -351.24121094 56.24414062 C-348.54574449 56.23811776 -345.85029147 56.23129656 -343.15483093 56.22343445 C-337.3457903 56.20798114 -331.53677393 56.19957013 -325.72771454 56.19572449 C-317.31899959 56.18997372 -308.91034984 56.17138113 -300.50166371 56.14928395 C-286.84600913 56.11356296 -273.19035085 56.08525179 -259.53466797 56.06298828 C-258.71743721 56.06165329 -257.90020645 56.0603183 -257.05821112 56.05894285 C-251.2588598 56.0495174 -245.45950808 56.04035524 -239.66015625 56.03125 C-233.04248016 56.02085664 -226.4248043 56.01033812 -219.80712891 55.99951172 C-218.5845966 55.99751561 -218.5845966 55.99751561 -217.33736667 55.99547917 C-203.73744692 55.9730324 -190.13755493 55.94282801 -176.5376637 55.90711927 C-168.15290044 55.88548028 -159.76818039 55.8708409 -151.38339075 55.86528051 C-145.63470921 55.86102612 -139.8860688 55.8497694 -134.13741007 55.83305657 C-130.8228844 55.82367269 -127.5085013 55.8186247 -124.19395256 55.82011986 C-120.59550203 55.82128026 -116.9972837 55.81025196 -113.39886475 55.79626465 C-111.83828783 55.80121311 -111.83828783 55.80121311 -110.24618411 55.80626154 C-101.68239746 55.75139724 -93.68186461 55.2495815 -86.91015625 49.53125 C-83.27131932 45.39354027 -80.42334282 40.76986159 -77.53515625 36.09375 C-65.93404781 17.7841745 -48.368644 6.56591395 -27.51452637 1.40206909 C-18.51422206 -0.52335333 -9.15410598 -0.04018919 0 0 Z " fill="#000000" transform="translate(409.91015625,335.46875)"/>
<path d="M0 0 C1.43520996 0.00858032 1.43520996 0.00858032 2.89941406 0.01733398 C15.86220825 0.34042478 26.1766993 4.26235834 36.3125 12.5 C37.55966797 13.43392578 37.55966797 13.43392578 38.83203125 14.38671875 C41.47845925 16.64139205 43.34854613 18.92988528 45.375 21.75 C46.02597656 22.64203125 46.67695313 23.5340625 47.34765625 24.453125 C51.68918237 31.18551143 54.1654642 37.73289118 56.0625 45.5 C56.28292969 46.37011719 56.50335938 47.24023438 56.73046875 48.13671875 C57.2660476 50.25574811 57.79045694 52.37759543 58.3125 54.5 C59.07175781 54.15066406 59.83101562 53.80132812 60.61328125 53.44140625 C62.10408203 52.75884766 62.10408203 52.75884766 63.625 52.0625 C64.61113281 51.61003906 65.59726562 51.15757812 66.61328125 50.69140625 C74.6793451 47.13113205 85.55830216 47.03190713 93.875 50.125 C102.44255399 54.23627591 107.89459983 60.49342695 111.42578125 69.265625 C113.79329728 77.90132223 113.4639225 88.27666849 109.5703125 96.390625 C104.39466965 105.07027449 97.80743822 109.33502059 88.3125 112.5 C83.0325 112.5 77.7525 112.5 72.3125 112.5 C72.3125 128.34 72.3125 144.18 72.3125 160.5 C67.0325 160.5 61.7525 160.5 56.3125 160.5 C56.3125 144.66 56.3125 128.82 56.3125 112.5 C51.0325 112.5 45.7525 112.5 40.3125 112.5 C40.3125 128.34 40.3125 144.18 40.3125 160.5 C35.0325 160.5 29.7525 160.5 24.3125 160.5 C24.3125 144.66 24.3125 128.82 24.3125 112.5 C19.0325 112.5 13.7525 112.5 8.3125 112.5 C8.3125 128.34 8.3125 144.18 8.3125 160.5 C3.0325 160.5 -2.2475 160.5 -7.6875 160.5 C-7.6875 144.66 -7.6875 128.82 -7.6875 112.5 C-12.9675 112.5 -18.2475 112.5 -23.6875 112.5 C-23.6875 128.34 -23.6875 144.18 -23.6875 160.5 C-28.9675 160.5 -34.2475 160.5 -39.6875 160.5 C-39.6875 144.66 -39.6875 128.82 -39.6875 112.5 C-44.9675 112.5 -50.2475 112.5 -55.6875 112.5 C-55.6875 128.34 -55.6875 144.18 -55.6875 160.5 C-60.9675 160.5 -66.2475 160.5 -71.6875 160.5 C-71.6875 144.66 -71.6875 128.82 -71.6875 112.5 C-76.9675 112.5 -82.2475 112.5 -87.6875 112.5 C-91.38152796 111.29944091 -93.58401102 110.4986469 -96.6875 108.5 C-97.74710938 107.84644531 -97.74710938 107.84644531 -98.828125 107.1796875 C-105.73397084 102.49905865 -109.48466024 96.49978649 -111.6875 88.5 C-112.68601512 77.40022728 -112.03697202 67.7655134 -104.9375 58.6875 C-99.29051857 52.64123705 -92.27165066 48.96427965 -84.0234375 48.12890625 C-74.78340933 47.97399454 -68.02885389 49.09842052 -59.6875 53.5 C-58.6975 53.995 -58.6975 53.995 -57.6875 54.5 C-57.38457031 53.24445313 -57.08164063 51.98890625 -56.76953125 50.6953125 C-52.11682338 31.89476624 -45.62385908 18.2188998 -28.6875 7.5 C-19.75175416 2.13855249 -10.36781704 -0.07279217 0 0 Z " fill="#000000" transform="translate(255.6875,175.5)"/>
<path d="M0 0 C47.85 0 95.7 0 145 0 C141.94207302 4.58689048 138.8841826 9.17259064 135.8125 13.75 C134.21260399 16.13940084 132.7001292 18.51406423 131.25 21 C130 23 130 23 128 24 C126.30211426 24.09305571 124.60054903 24.12191835 122.90011597 24.12025452 C121.2804744 24.12231651 121.2804744 24.12231651 119.62811279 24.12442017 C118.43840881 24.12082489 117.24870483 24.11722961 116.02294922 24.11352539 C114.14982559 24.11374443 114.14982559 24.11374443 112.23886108 24.1139679 C108.80931337 24.11338952 105.37982543 24.10836519 101.9502883 24.10139394 C98.36815662 24.09515378 94.78602421 24.09455608 91.20388794 24.09336853 C84.4182475 24.09025717 77.63262311 24.08204641 70.84698975 24.07201904 C63.12278784 24.06085184 55.39858517 24.05534592 47.6743772 24.05032361 C31.78290724 24.03986364 15.89145941 24.02152058 0 24 C0 16.08 0 8.16 0 0 Z " fill="#000000" transform="translate(184,352)"/>
</svg>
