<?xml version="1.0" encoding="UTF-8"?>
<svg version="1.1" xmlns="http://www.w3.org/2000/svg" width="512" height="512">
<path d="M0 0 C0.88068649 0.00015106 1.76137299 0.00030212 2.66874695 0.00045776 C3.61570938 0.01078033 4.56267181 0.02110291 5.53833008 0.03173828 C6.51071121 0.03456818 7.48309235 0.03739807 8.48493958 0.04031372 C11.59270499 0.05151479 14.70018292 0.07661931 17.80786133 0.10205078 C19.91397696 0.11208067 22.02009711 0.12120651 24.1262207 0.12939453 C29.29113429 0.14975288 34.45542575 0.18890189 39.62036133 0.22705078 C40.11536133 12.60205078 40.11536133 12.60205078 40.62036133 25.22705078 C61.59488155 25.25016785 82.56939872 25.26802902 103.5439291 25.27886295 C113.2820574 25.28402632 123.02017765 25.29106978 132.75830078 25.30249023 C141.24285626 25.31243584 149.72740591 25.31890391 158.21196705 25.32113928 C162.70734793 25.32244659 167.20271214 25.32553377 171.69808769 25.33278084 C175.92427179 25.33953911 180.15043226 25.34166814 184.37662125 25.34015846 C185.93232031 25.34043488 187.48802011 25.34244114 189.04371452 25.34625626 C191.15848067 25.35119051 193.2731562 25.35005008 195.38792419 25.3473053 C196.57427176 25.34822709 197.76061934 25.34914888 198.98291683 25.35009861 C201.54464359 25.52723014 201.54464359 25.52723014 202.62036133 24.22705078 C202.77800538 22.44835352 202.8713681 20.66386602 202.93676758 18.87939453 C202.97866211 17.79980469 203.02055664 16.72021484 203.0637207 15.60791016 C203.10303711 14.47160156 203.14235352 13.33529297 203.18286133 12.16455078 C203.22604492 11.024375 203.26922852 9.88419922 203.3137207 8.70947266 C203.42018972 5.88212883 203.5222034 3.0546934 203.62036133 0.22705078 C209.75835658 0.07826477 215.89529284 -0.03037338 222.03466797 -0.10253906 C224.12111709 -0.13263441 226.2074405 -0.17352148 228.29345703 -0.22558594 C231.29987657 -0.29872087 234.30461802 -0.33247812 237.31176758 -0.35888672 C238.70124352 -0.40533829 238.70124352 -0.40533829 240.11878967 -0.45272827 C245.97232645 -0.45574143 249.08108653 0.59111839 253.35386658 4.6421814 C255.90097933 7.82959376 255.74704242 10.96895718 255.75178909 14.87372303 C255.75563024 16.05686708 255.75947138 17.24001114 255.76342893 18.45900804 C255.76256244 19.76520827 255.76169596 21.0714085 255.76080322 22.41719055 C255.76338625 23.81381172 255.76639923 25.21043215 255.76980662 26.60705155 C255.77788721 30.45382705 255.77966678 34.3005839 255.78040409 38.14736688 C255.7822528 42.29266701 255.78979919 46.43795743 255.79653931 50.58325195 C255.81013047 59.65136845 255.81614851 68.71948053 255.82054996 77.78760552 C255.82331095 83.4476552 255.82754803 89.10770317 255.83205414 94.76775169 C255.84424761 110.43280206 255.85454691 126.09785106 255.85792923 141.76290607 C255.8581488 142.76581155 255.85836836 143.76871703 255.85859458 144.80201359 C255.85881286 145.8073439 255.85903114 146.81267421 255.85925603 147.84846908 C255.8596995 149.88571441 255.86014606 151.92295975 255.8605957 153.96020508 C255.86081713 154.97075312 255.86103856 155.98130116 255.8612667 157.02247187 C255.86521568 173.40119307 255.88267241 189.77986982 255.90595523 206.15857384 C255.92965574 222.96650401 255.94213048 239.77441186 255.94329715 256.58235902 C255.94421462 266.02258009 255.94998506 275.46274324 255.96811676 284.90294838 C255.98350018 292.94070067 255.98864861 300.97837712 255.98037866 309.01614133 C255.97646596 313.1181274 255.97743187 317.21996066 255.991436 321.32192802 C256.00413783 325.07671996 256.00301037 328.83124367 255.99084529 332.58603504 C255.98795127 334.5886551 255.99985217 336.59127964 256.01226735 338.59386331 C256.00567751 339.7848306 255.99908766 340.9757979 255.99229813 342.20285511 C255.99289521 343.22875211 255.9934923 344.2546491 255.99410748 345.31163388 C255.37965479 350.10468857 253.60369689 353.32473496 250.06624603 356.57072544 C245.41780648 358.80508001 241.58054111 358.77991076 236.48620605 358.72825623 C235.46850836 358.73379062 234.45081067 358.73932502 233.40227365 358.74502712 C229.99360103 358.75863563 226.58566033 358.74366271 223.17700195 358.72875977 C220.73267811 358.73254285 218.28835641 358.7380428 215.84403992 358.74513245 C209.89505694 358.75765447 203.94636064 358.75151561 197.99740541 358.73645686 C191.0678167 358.71958447 184.13828073 358.72280858 177.20867783 358.72655094 C164.84342135 358.73242786 152.47826674 358.71826462 140.11303711 358.69360352 C128.11788108 358.66968322 116.12286115 358.66259946 104.12768555 358.6730957 C91.06179451 358.6845084 77.9959664 358.68643064 64.93007612 358.67199761 C63.53648854 358.67047179 62.14290095 358.66895143 60.74931335 358.6674366 C60.0636641 358.66667879 59.37801484 358.66592097 58.67158833 358.66514019 C53.842761 358.66040008 49.01396179 358.66224687 44.18513489 358.666502 C37.68443019 358.67194687 31.18388656 358.66117364 24.68320656 358.63954735 C22.29591826 358.63397809 19.90861184 358.63351544 17.52132225 358.63850021 C14.26551036 358.64444642 11.0102764 358.63195994 7.7545166 358.61473083 C6.33360206 358.6237459 6.33360206 358.6237459 4.88398218 358.63294309 C-0.24543552 358.5835011 -4.03778055 358.26701324 -8.37963867 355.22705078 C-11.10652832 351.49219692 -11.75538613 348.87728647 -11.75995541 344.28743076 C-11.76839535 343.08985443 -11.77683529 341.89227809 -11.78553098 340.65841156 C-11.77952094 339.34636417 -11.77351089 338.03431678 -11.76731873 336.68251038 C-11.77149168 335.27178521 -11.77696899 333.86106341 -11.78363854 332.45034784 C-11.79811704 328.57382324 -11.79384098 324.69751081 -11.78647172 320.82097447 C-11.78174829 316.64024735 -11.79424258 312.45956668 -11.80448914 308.27885437 C-11.8216986 300.08857337 -11.82251271 291.89836902 -11.81727623 283.70807464 C-11.81323734 277.05205829 -11.81467474 270.39606462 -11.82002449 263.74004936 C-11.82077291 262.79328561 -11.82152133 261.84652185 -11.82229244 260.87106828 C-11.82382389 258.94781633 -11.82536223 257.02456439 -11.8269074 255.10131245 C-11.84064018 237.05927765 -11.83518926 219.0172862 -11.82372219 200.97525238 C-11.81378865 184.46407197 -11.82673119 167.9530036 -11.85065638 151.44184048 C-11.87502999 134.49371555 -11.88465956 117.54564285 -11.87800366 100.59750074 C-11.87450761 91.08017083 -11.87676891 81.56292711 -11.89425468 72.04561043 C-11.90895492 63.94383183 -11.90964068 55.84220011 -11.89218377 47.74042446 C-11.88365344 43.60598536 -11.88157357 39.47180889 -11.89683533 35.33738327 C-11.9106322 31.55298146 -11.90598437 27.76906853 -11.88659609 23.98469537 C-11.88103076 21.96626737 -11.89514922 19.9478148 -11.9099502 17.92943341 C-11.8197809 6.90268082 -11.8197809 6.90268082 -7.37963867 2.22705078 C-4.24433638 0.13684925 -3.56132097 -0.02040872 0 0 Z M157.62036133 46.22705078 C157.32902542 49.30164617 157.23202531 52.17437691 157.26391602 55.25073242 C157.26187164 56.18576096 157.25982727 57.12078949 157.25772095 58.08415222 C157.25470442 61.18536719 157.27321497 64.28605497 157.29223633 67.38720703 C157.29529228 69.53429533 157.29716965 71.68138561 157.2979126 73.82847595 C157.30252102 78.33193527 157.31696855 82.8352163 157.33911133 87.33862305 C157.36741109 93.12511021 157.37832385 98.91145684 157.38279343 104.69800663 C157.38694069 109.1322115 157.39675207 113.56638766 157.40866852 118.00057793 C157.41438468 120.13493048 157.41913889 122.26928582 157.42293549 124.40364265 C157.42977408 127.38006625 157.44339453 130.35637608 157.45922852 133.33276367 C157.46034637 134.2236972 157.46146423 135.11463074 157.46261597 136.03256226 C157.10295605 139.94382163 157.10295605 139.94382163 158.62036133 143.22705078 C160.89983924 143.32726008 163.18243268 143.35786381 165.46411133 143.35986328 C166.1484021 143.36082001 166.83269287 143.36177673 167.53771973 143.36276245 C168.9869801 143.36344408 170.43624351 143.36159101 171.88549805 143.35742188 C174.11099061 143.3520733 176.33628134 143.35736738 178.56176758 143.36376953 C179.96671594 143.36310875 181.37166418 143.36182758 182.77661133 143.35986328 C184.06374023 143.35873535 185.35086914 143.35760742 186.67700195 143.35644531 C189.5086229 143.56391221 189.5086229 143.56391221 190.62036133 142.22705078 C190.73163251 139.25489881 190.77776389 136.30577001 190.78149414 133.33276367 C190.78645905 132.39948746 190.79142395 131.46621124 190.79653931 130.50465393 C190.81120036 127.4029976 190.81796905 124.30139239 190.82348633 121.19970703 C190.82923401 119.05358375 190.83499178 116.9074605 190.84075928 114.76133728 C190.85128015 110.25617228 190.85711587 105.75102518 190.8605957 101.24584961 C190.86608631 95.46047644 190.89012195 89.67533794 190.91856766 83.89003849 C190.93714899 79.45579832 190.9423972 75.02161522 190.94393158 70.5873394 C190.94696825 68.45379794 190.95503061 66.32025772 190.96811676 64.18675423 C190.98508526 61.20789618 190.98331976 58.22961856 190.97680664 55.25073242 C190.98602142 54.36182312 190.99523621 53.47291382 191.00473022 52.55706787 C191.02193198 49.8629019 191.02193198 49.8629019 190.62036133 46.22705078 C187.11906397 43.89285254 185.66574294 43.96994251 181.52661133 43.96142578 C179.73416992 43.95755859 179.73416992 43.95755859 177.90551758 43.95361328 C176.03186523 43.96521484 176.03186523 43.96521484 174.12036133 43.97705078 C172.87125977 43.96931641 171.6221582 43.96158203 170.33520508 43.95361328 C169.14024414 43.95619141 167.9452832 43.95876953 166.71411133 43.96142578 C165.61776367 43.96368164 164.52141602 43.9659375 163.3918457 43.96826172 C160.40804645 44.02558111 160.40804645 44.02558111 157.62036133 46.22705078 Z M106.62036133 71.22705078 C104.25733423 74.77159142 104.36745723 76.26951095 104.36157227 80.47094727 C104.35526794 81.75915878 104.34896362 83.0473703 104.34246826 84.37461853 C104.34604843 85.78246192 104.35015048 87.19030406 104.35473633 88.59814453 C104.35338896 90.04159104 104.35144783 91.4850371 104.34893799 92.92848206 C104.34598915 95.95391154 104.35027596 98.97922292 104.35961914 102.00463867 C104.37100342 105.87956128 104.36445934 109.75420653 104.35247421 113.62911892 C104.34524038 116.6102761 104.3475507 119.59136775 104.3527298 122.57252693 C104.35406261 124.00104874 104.35243147 125.42957653 104.34777069 126.85809135 C104.34268187 128.85664631 104.35181558 130.85522215 104.36157227 132.85375977 C104.36316345 133.99054672 104.36475464 135.12733368 104.36639404 136.29856873 C104.61387027 139.15220278 105.13626341 140.81093772 106.62036133 143.22705078 C110.8561846 143.27643706 115.09185598 143.31276341 119.32788086 143.33691406 C120.7693168 143.34698041 122.21073228 143.36063458 123.65209961 143.37792969 C125.72230066 143.4021509 127.79223209 143.4135272 129.86254883 143.42236328 C131.10891113 143.43283691 132.35527344 143.44331055 133.6394043 143.45410156 C136.73807763 143.54357571 136.73807763 143.54357571 138.62036133 141.22705078 C138.9211952 138.28587758 138.9211952 138.28587758 138.86328125 134.78955078 C138.8651796 134.12922852 138.86707794 133.46890625 138.86903381 132.78857422 C138.87274486 130.60127976 138.86203287 128.41431584 138.85083008 126.22705078 C138.84963832 124.7101241 138.84918511 123.19319666 138.84944153 121.67626953 C138.84787609 118.49523304 138.83958199 115.31430899 138.82617188 112.13330078 C138.80918193 108.05083181 138.80535751 103.96848651 138.80611706 99.88598633 C138.80584543 96.75308039 138.80036547 93.62020161 138.79311562 90.48730469 C138.78992802 88.98177293 138.78796133 87.47623808 138.78722191 85.97070312 C138.7850593 83.86859875 138.77631684 81.76662681 138.765625 79.66455078 C138.7618132 78.46701172 138.7580014 77.26947266 138.7540741 76.03564453 C138.81221611 73.27394907 138.81221611 73.27394907 137.62036133 71.22705078 C133.24214224 71.15297888 128.8642535 71.09848703 124.4855957 71.06225586 C122.99562224 71.04715478 121.50569332 71.0266722 120.01586914 71.00073242 C117.87610902 70.96440494 115.73693566 70.94733857 113.59692383 70.93408203 C112.30866699 70.91837158 111.02041016 70.90266113 109.69311523 70.88647461 C108.67910645 70.99886475 107.66509766 71.11125488 106.62036133 71.22705078 Z M52.62036133 99.22705078 C52.31575104 101.11004201 52.31575104 101.11004201 52.36157227 103.27783203 C52.35526794 104.11209717 52.34896362 104.9463623 52.34246826 105.8059082 C52.34651672 106.70801025 52.35056519 107.6101123 52.35473633 108.53955078 C52.35282288 109.46421143 52.35090942 110.38887207 52.34893799 111.34155273 C52.34757567 113.29850537 52.35127537 115.25546702 52.35961914 117.21240234 C52.37031798 120.21488668 52.35972542 123.21677265 52.34692383 126.21923828 C52.34824541 128.11767711 52.35080779 130.01611556 52.35473633 131.91455078 C52.35068787 132.81665283 52.3466394 133.71875488 52.34246826 134.64819336 C52.34877258 135.4824585 52.3550769 136.31672363 52.36157227 137.17626953 C52.36316345 137.91192139 52.36475464 138.64757324 52.36639404 139.40551758 C52.46871102 141.47719292 52.46871102 141.47719292 54.62036133 143.22705078 C57.69681873 143.5393997 57.69681873 143.5393997 61.30786133 143.49267578 C61.96616943 143.49458923 62.62447754 143.49650269 63.30273438 143.49847412 C64.69474673 143.49983528 66.0867718 143.49614361 67.47875977 143.48779297 C69.61218722 143.47709178 71.74477264 143.48768984 73.87817383 143.50048828 C75.22973819 143.49916667 76.58130203 143.49660425 77.93286133 143.49267578 C79.16649414 143.49041992 80.40012695 143.48816406 81.67114258 143.48583984 C84.74105711 143.53474845 84.74105711 143.53474845 86.62036133 141.22705078 C86.92497161 139.34405955 86.92497161 139.34405955 86.87915039 137.17626953 C86.88545471 136.34200439 86.89175903 135.50773926 86.89825439 134.64819336 C86.89420593 133.74609131 86.89015747 132.84398926 86.88598633 131.91455078 C86.88789978 130.98989014 86.88981323 130.06522949 86.89178467 129.11254883 C86.89314699 127.15559619 86.88944729 125.19863454 86.88110352 123.24169922 C86.87040467 120.23921488 86.88099724 117.23732891 86.89379883 114.23486328 C86.89247724 112.33642446 86.88991487 110.437986 86.88598633 108.53955078 C86.89003479 107.63744873 86.89408325 106.73534668 86.89825439 105.8059082 C86.89195007 104.97164307 86.88564575 104.13737793 86.87915039 103.27783203 C86.8775592 102.54218018 86.87596802 101.80652832 86.87432861 101.04858398 C86.77201164 98.97690864 86.77201164 98.97690864 84.62036133 97.22705078 C81.54390393 96.91470186 81.54390393 96.91470186 77.93286133 96.96142578 C77.27455322 96.95951233 76.61624512 96.95759888 75.93798828 96.95562744 C74.54597593 96.95426628 73.15395086 96.95795795 71.76196289 96.96630859 C69.62853544 96.97700978 67.49595002 96.96641172 65.36254883 96.95361328 C64.01098447 96.95493489 62.65942063 96.95749731 61.30786133 96.96142578 C59.45741211 96.96480957 59.45741211 96.96480957 57.56958008 96.96826172 C54.49966554 96.91935311 54.49966554 96.91935311 52.62036133 99.22705078 Z M7.62036133 163.22705078 C7.37005156 165.64324901 7.37005156 165.64324901 7.62036133 168.22705078 C11.38184695 170.73470786 14.34413734 170.51558474 18.70019531 170.50170898 C19.93479492 170.50937538 19.93479492 170.50937538 21.19433594 170.51719666 C23.91844937 170.5311108 26.64231031 170.53013453 29.36645508 170.52783203 C31.25830683 170.53171797 33.15015771 170.53605242 35.04200745 170.54081726 C39.00899075 170.54828339 42.97588507 170.54798535 46.94287109 170.54272461 C52.02852248 170.53692952 57.11380973 170.55386003 62.1994009 170.57706928 C66.10702141 170.59179542 70.014554 170.59267985 73.92219734 170.58955956 C75.79730005 170.59007333 77.6724076 170.59532165 79.54748344 170.60537148 C82.16894114 170.61769688 84.78968667 170.61096781 87.41113281 170.59936523 C88.18685135 170.60700897 88.96256989 170.61465271 89.76179504 170.62252808 C93.98730819 170.58115389 96.56254623 170.26390453 99.62036133 167.22705078 C98.63036133 164.75205078 98.63036133 164.75205078 97.62036133 162.22705078 C86.1811319 162.20391653 74.74190801 162.18613015 63.30265999 162.17523861 C57.9913971 162.17001216 52.68015018 162.1629188 47.36889648 162.15161133 C42.24664019 162.14077403 37.12439929 162.13477215 32.00213242 162.13217354 C30.04444003 162.13032082 28.08674852 162.12670311 26.12906265 162.12132072 C23.39453538 162.11409914 20.66007233 162.11306032 17.92553711 162.11352539 C17.10986267 162.10993011 16.29418823 162.10633484 15.45379639 162.10263062 C11.40630308 162.01334115 11.40630308 162.01334115 7.62036133 163.22705078 Z M136.83520508 183.23095703 C127.61335021 194.90568378 123.0384755 209.36091922 124.62036133 224.22705078 C127.54570479 241.55274568 135.07868928 254.70932848 149.46801758 265.32861328 C162.83372884 273.78337007 178.31608119 276.45275271 193.74536133 273.10205078 C209.39274573 268.64327546 220.96937982 259.93423701 229.62036133 246.22705078 C236.79140201 232.26882075 239.03986475 217.44217381 234.65161133 202.16455078 C231.14191004 192.16721983 226.14946887 184.64973984 218.62036133 177.22705078 C218.05575195 176.65212891 217.49114258 176.07720703 216.90942383 175.48486328 C206.63466751 165.81155611 191.99199572 161.49627636 178.11645508 161.87939453 C161.17031527 163.56454139 148.21073082 170.46149378 136.83520508 183.23095703 Z M7.62036133 190.22705078 C7.78543779 192.80245291 7.78543779 192.80245291 8.62036133 195.22705078 C11.79170524 196.81272274 15.21120173 196.38326898 18.69433594 196.38818359 C19.52861618 196.3931485 20.36289642 196.3981134 21.22245789 196.40322876 C23.98921526 196.41786416 26.75591532 196.42465412 29.52270508 196.43017578 C31.44080101 196.43592542 33.35889692 196.44168317 35.2769928 196.44744873 C39.30120106 196.45796217 43.32538931 196.46380282 47.34960938 196.46728516 C52.51271101 196.47277533 57.67554965 196.49681306 62.83856869 196.52525711 C66.80103841 196.54385468 70.76344437 196.54908751 74.72595406 196.55062103 C76.62980146 196.55365384 78.53364758 196.56170338 80.43745232 196.57480621 C83.09750436 196.59180919 85.75690827 196.59000087 88.41699219 196.58349609 C89.20722778 196.59271088 89.99746338 196.60192566 90.81164551 196.61141968 C94.97454038 196.5996336 94.97454038 196.5996336 98.64479065 194.83758545 C99.83215265 193.23556177 99.83215265 193.23556177 99.43286133 191.10205078 C98.77680473 189.03740946 98.77680473 189.03740946 96.62036133 188.22705078 C93.88487979 188.12343083 91.17466496 188.08024338 88.4387207 188.08178711 C87.5930806 188.0784285 86.74744049 188.07506989 85.87617493 188.0716095 C83.07213892 188.06208605 80.26816252 188.0601558 77.46411133 188.05908203 C75.52119929 188.05587084 73.5782875 188.05250688 71.63537598 188.04899597 C67.55989013 188.04300151 63.4844255 188.04115644 59.40893555 188.04174805 C54.17629255 188.04184978 48.94378489 188.02818707 43.71117401 188.01097584 C39.69813405 187.99988091 35.6851271 187.99782805 31.67207336 187.99835777 C29.74228956 187.99717427 27.81250499 187.99273189 25.88273621 187.98502541 C23.18906038 187.97527428 20.49568214 187.97808392 17.80200195 187.98413086 C16.99882034 187.97851135 16.19563873 187.97289185 15.36811829 187.96710205 C11.02849757 187.82440582 11.02849757 187.82440582 7.62036133 190.22705078 Z M7.62036133 216.22705078 C7.91019401 219.53388544 7.91019401 219.53388544 9.62036133 222.22705078 C12.31260706 222.33816232 14.9794397 222.3844447 17.67260742 222.38818359 C18.51649521 222.3931485 19.360383 222.3981134 20.22984314 222.40322876 C23.03450319 222.41788945 25.83910668 222.4246589 28.64379883 222.43017578 C30.58574425 222.43592408 32.52768964 222.44168185 34.46963501 222.44744873 C38.54689805 222.45796989 42.6241413 222.46380523 46.70141602 222.46728516 C51.93292625 222.4727718 57.16417646 222.49679876 62.39560509 222.52525711 C66.40868907 222.54385609 70.42171008 222.54908763 74.43483353 222.55062103 C76.36380052 222.55365437 78.29276624 222.5617057 80.22169113 222.57480621 C82.91777216 222.59180942 85.61321369 222.59000059 88.30932617 222.58349609 C89.51106224 222.59731827 89.51106224 222.59731827 90.73707581 222.61141968 C94.94067317 222.6044986 94.94067317 222.6044986 98.65151978 220.83758545 C99.83116959 219.23442175 99.83116959 219.23442175 99.43286133 217.10205078 C98.77680473 215.03740946 98.77680473 215.03740946 96.62036133 214.22705078 C93.88487979 214.12343083 91.17466496 214.08024338 88.4387207 214.08178711 C87.5930806 214.0784285 86.74744049 214.07506989 85.87617493 214.0716095 C83.07213892 214.06208605 80.26816252 214.0601558 77.46411133 214.05908203 C75.52119929 214.05587084 73.5782875 214.05250688 71.63537598 214.04899597 C67.55989013 214.04300151 63.4844255 214.04115644 59.40893555 214.04174805 C54.17629255 214.04184978 48.94378489 214.02818707 43.71117401 214.01097584 C39.69813405 213.99988091 35.6851271 213.99782805 31.67207336 213.99835777 C29.74228956 213.99717427 27.81250499 213.99273189 25.88273621 213.98502541 C23.18906038 213.97527428 20.49568214 213.97808392 17.80200195 213.98413086 C16.99882034 213.97851135 16.19563873 213.97289185 15.36811829 213.96710205 C11.02849757 213.82440582 11.02849757 213.82440582 7.62036133 216.22705078 Z M8.62036133 254.22705078 C6.1906347 257.87164072 6.3379962 260.56039068 6.36157227 264.77197266 C6.35806763 265.53812393 6.35456299 266.30427521 6.35095215 267.09364319 C6.34214506 269.62778771 6.34798032 272.16165338 6.35473633 274.69580078 C6.35338938 276.45552626 6.3514486 278.21525138 6.34893799 279.97497559 C6.34598811 283.66369163 6.35027998 287.35231083 6.35961914 291.04101562 C6.37101361 295.77246559 6.3644534 300.50368867 6.35247421 305.23513031 C6.34525193 308.86905633 6.34754524 312.50292844 6.3527298 316.13685608 C6.35406527 317.88159716 6.35242214 319.6263431 6.34777069 321.37107849 C6.34269941 323.80822746 6.35042404 326.24500746 6.36157227 328.68212891 C6.3575238 329.40533829 6.35347534 330.12854767 6.3493042 330.87367249 C6.38050686 334.55020922 6.52275322 336.08063862 8.62036133 339.22705078 C11.06692638 339.68355452 11.06692638 339.68355452 13.97253418 339.60800171 C15.67618889 339.62069092 15.67618889 339.62069092 17.41426086 339.63363647 C18.66627792 339.62756378 19.91829498 339.62149109 21.20825195 339.61523438 C23.17896919 339.62311981 23.17896919 339.62311981 25.1894989 339.63116455 C28.79898774 339.64487085 32.40822008 339.63952603 36.01771355 339.63002729 C39.78977032 339.62244775 43.5618047 339.62947154 47.3338623 339.63418579 C53.66914831 339.63964834 60.0043295 339.6324387 66.33959961 339.61816406 C73.6707755 339.60183652 81.00170113 339.60712468 88.33287096 339.62364328 C94.61996117 339.63724399 100.9069759 339.63918477 107.19407606 339.63132727 C110.95228651 339.62664292 114.71037921 339.62604666 118.46858215 339.63593674 C122.65669653 339.6461877 126.84437741 339.63199221 131.0324707 339.61523438 C132.28448776 339.62130707 133.53650482 339.62737976 134.82646179 339.63363647 C135.9622316 339.625177 137.0980014 339.61671753 138.26818848 339.60800171 C139.25928368 339.60687063 140.25037888 339.60573956 141.27150726 339.6045742 C142.0466291 339.47999147 142.82175095 339.35540874 143.62036133 339.22705078 C145.82423547 335.92123957 145.8725444 334.91253023 145.87915039 331.06884766 C145.88860687 329.49206238 145.88860687 329.49206238 145.89825439 327.88342285 C145.89420593 326.74900757 145.89015747 325.61459229 145.88598633 324.44580078 C145.88885651 322.698255 145.88885651 322.698255 145.89178467 320.91540527 C145.89314644 318.45076278 145.88945057 315.98611311 145.88110352 313.52148438 C145.87040418 309.74218685 145.88099938 305.96336471 145.89379883 302.18408203 C145.89247723 299.7921539 145.88991484 297.40022606 145.88598633 295.00830078 C145.89205902 293.30667786 145.89205902 293.30667786 145.89825439 291.57067871 C145.89195007 290.51948853 145.88564575 289.46829834 145.87915039 288.38525391 C145.8775592 287.45942505 145.87596802 286.53359619 145.87432861 285.57971191 C145.77463398 282.95774736 145.77463398 282.95774736 143.62036133 280.22705078 C140.83239775 279.78706193 140.83239775 279.78706193 137.51831055 279.88647461 C136.23713348 279.8867012 134.95595642 279.8869278 133.63595581 279.88716125 C132.23231663 279.90248238 130.82868098 279.91813038 129.42504883 279.93408203 C127.99301598 279.9396764 126.5609774 279.94394725 125.12893677 279.94694519 C121.35748477 279.95840665 117.58637868 279.98788454 113.81506348 280.02105713 C109.96765828 280.05173028 106.12019727 280.0654446 102.27270508 280.08056641 C94.72176603 280.1127534 87.17111212 280.16396494 79.62036133 280.22705078 C79.62821655 279.09891968 79.62821655 279.09891968 79.63623047 277.94799805 C79.6569336 274.56185736 79.67000009 271.17572994 79.68286133 267.78955078 C79.69542969 266.01354492 79.69542969 266.01354492 79.70825195 264.20166016 C79.71308594 262.51459961 79.71308594 262.51459961 79.71801758 260.79345703 C79.7258728 259.23026733 79.7258728 259.23026733 79.73388672 257.63549805 C79.89341689 255.27576331 79.89341689 255.27576331 78.62036133 254.22705078 C76.45330209 254.11695074 74.28261414 254.07791155 72.11279297 254.06591797 C71.43310959 254.06095306 70.75342621 254.05598816 70.05314636 254.0508728 C67.7955933 254.03621894 65.53811047 254.02944421 63.28051758 254.02392578 C61.71732073 254.01817738 60.15412391 254.01241962 58.59092712 254.00665283 C55.30980092 253.99613393 52.02869929 253.99029697 48.74755859 253.98681641 C44.53603508 253.98132696 40.32483412 253.95729336 36.1134119 253.92884445 C32.88357077 253.91025364 29.65380791 253.90501441 26.42391777 253.90348053 C24.87091748 253.90044585 23.31791883 253.89239003 21.76497078 253.87929535 C19.59550299 253.86230677 17.42683087 253.86409674 15.25732422 253.87060547 C14.02123917 253.86695984 12.78515411 253.86331421 11.51161194 253.85955811 C10.55749924 253.98083069 9.60338654 254.10210327 8.62036133 254.22705078 Z " fill="#000000" transform="translate(134.379638671875,90.77294921875)"/>
<path d="M0 0 C24.09 0 48.18 0 73 0 C74.98 7.92 76.96 15.84 79 24 C81.82879286 26.82879286 83.79924198 26.3142666 87.7578125 26.4140625 C88.42086395 26.43342865 89.08391541 26.4527948 89.76705933 26.4727478 C91.88624177 26.53255954 94.0054785 26.57893388 96.125 26.625 C97.56122169 26.66317845 98.99742045 26.70223011 100.43359375 26.7421875 C103.95561029 26.83990819 107.47738072 26.91945876 111 27 C111 32.94 111 38.88 111 45 C61.83 45 12.66 45 -38 45 C-38 39.06 -38 33.12 -38 27 C-35.92976562 26.93941406 -33.85953125 26.87882812 -31.7265625 26.81640625 C-29.72427335 26.75383471 -27.72198506 26.69123056 -25.71972656 26.62768555 C-24.3268741 26.58434154 -22.93396869 26.54266604 -21.54101562 26.50268555 C-19.54023349 26.44497068 -17.53964141 26.38078131 -15.5390625 26.31640625 C-13.73236084 26.26141968 -13.73236084 26.26141968 -11.88916016 26.20532227 C-9.06003633 26.18947013 -9.06003633 26.18947013 -7 25 C-6.16970054 22.71766204 -6.16970054 22.71766204 -5.52734375 19.94140625 C-5.26759766 18.91595703 -5.00785156 17.89050781 -4.74023438 16.83398438 C-4.47533203 15.75439453 -4.21042969 14.67480469 -3.9375 13.5625 C-3.40677911 11.43834372 -2.87431312 9.31462246 -2.33984375 7.19140625 C-2.10644287 6.24467041 -1.87304199 5.29793457 -1.63256836 4.32250977 C-1 2 -1 2 0 0 Z " fill="#000000" transform="translate(220,64)"/>
<path d="M0 0 C11.66220407 2.38748256 24.30179203 16.59176231 31.12011719 25.79833984 C40.29073284 40.3423797 35.96371335 62.78879103 34 79 C32.39240427 78.8512023 30.78512112 78.69902478 29.17797852 78.54541016 C28.28289078 78.46102692 27.38780304 78.37664368 26.46559143 78.28970337 C14.9640662 76.93829106 6.03325252 68.86532715 -1.2109375 60.39453125 C-10.02459014 48.59809224 -11.41994043 35.26675321 -10 21 C-8.48434821 13.12143708 -5.11595713 6.13914856 0 0 Z " fill="#000000" transform="translate(277,278)"/>
<path d="M0 0 C10.56347116 8.00724657 18.08934124 17.44670618 20.75 30.75 C20.77444805 32.74985057 20.77785245 34.75019395 20.75 36.75 C-18.88492869 42.03736863 -18.88492869 42.03736863 -31.61669922 33.609375 C-42.01094159 25.61261016 -50.44480934 15.21140738 -58.25 4.75 C-56.56511013 -0.30466962 -51.80922515 -1.9030571 -47.25 -4.25 C-32.8218446 -11.21887649 -12.98185096 -8.56959044 0 0 Z " fill="#000000" transform="translate(342.25,268.25)"/>
<path d="M0 0 C6.27 0 12.54 0 19 0 C19 27.72 19 55.44 19 84 C12.73 84 6.46 84 0 84 C0 56.28 0 28.56 0 0 Z " fill="#000000" transform="translate(299,143)"/>
<path d="M0 0 C14.52 0 29.04 0 44 0 C42.64819926 13.51800736 38.92518126 24.17046592 28.45703125 33.19140625 C19.00638711 40.42934669 11.92719371 42.80728063 0 44 C0 29.48 0 14.96 0 0 Z " fill="#000000" transform="translate(319,313)"/>
<path d="M0 0 C19.14 0 38.28 0 58 0 C58 6.27 58 12.54 58 19 C38.86 19 19.72 19 0 19 C0 12.73 0 6.46 0 0 Z " fill="#000000" transform="translate(214,404)"/>
<path d="M0 0 C19.14 0 38.28 0 58 0 C58 6.27 58 12.54 58 19 C38.86 19 19.72 19 0 19 C0 12.73 0 6.46 0 0 Z " fill="#000000" transform="translate(149,404)"/>
<path d="M0 0 C19.14 0 38.28 0 58 0 C58 6.27 58 12.54 58 19 C38.86 19 19.72 19 0 19 C0 12.73 0 6.46 0 0 Z " fill="#000000" transform="translate(214,378)"/>
<path d="M0 0 C19.14 0 38.28 0 58 0 C58 6.27 58 12.54 58 19 C38.86 19 19.72 19 0 19 C0 12.73 0 6.46 0 0 Z " fill="#000000" transform="translate(149,378)"/>
<path d="M0 0 C19.14 0 38.28 0 58 0 C58 6.27 58 12.54 58 19 C38.86 19 19.72 19 0 19 C0 12.73 0 6.46 0 0 Z " fill="#000000" transform="translate(149,352)"/>
<path d="M0 0 C6.27 0 12.54 0 19 0 C19 19.14 19 38.28 19 58 C12.73 58 6.46 58 0 58 C0 38.86 0 19.72 0 0 Z " fill="#000000" transform="translate(247,169)"/>
<path d="M0 0 C5.94 0 11.88 0 18 0 C18 10.56 18 21.12 18 32 C12.06 32 6.12 32 0 32 C0 21.44 0 10.88 0 0 Z " fill="#000000" transform="translate(195,195)"/>
</svg>
